<svg width="50" height="50" viewBox="0 0 50 50" fill="none" xmlns="http://www.w3.org/2000/svg">
<rect x="0.333374" y="0.333252" width="49.3333" height="49.3333" rx="5" fill="#FAFF03"/>
<path d="M0 45C0 47.7614 2.23858 50 5 50H21.6667V28.3333H0V45Z" fill="#FE0102"/>
<path d="M50 45C50 47.7614 47.7614 50 45 50H28.3333V28.3333H50V45Z" fill="#FE0102"/>
<path d="M50 5C50 2.23857 47.7614 0 45 0H28.3333V21.6667H50V5Z" fill="#FE0102"/>
<path d="M0 5C0 2.23857 2.23858 0 5 0H21.6667V21.6667H0V5Z" fill="#FE0102"/>
<rect x="1" y="1" width="48" height="48" rx="4" stroke="white" stroke-width="2"/>
</svg>
