<svg id="svg" version="1.1" xmlns="http://www.w3.org/2000/svg" xmlns:xlink="http://www.w3.org/1999/xlink" width="400" height="266.6666666666667" viewBox="0, 0, 400,266.6666666666667"><g id="svgg"><path id="path0" d="M195.750 40.783 C 186.346 42.966,182.822 53.829,189.293 60.688 L 190.388 61.848 190.467 64.874 C 190.543 67.749,190.565 67.917,190.920 68.233 L 191.294 68.566 190.897 68.878 C 190.679 69.050,190.500 69.294,190.500 69.421 C 190.500 69.615,189.368 69.635,183.341 69.549 C 177.969 69.472,176.123 69.496,175.946 69.643 C 175.753 69.803,175.691 69.748,175.611 69.345 C 175.459 68.584,175.077 68.487,172.227 68.477 C 169.188 68.466,169.011 68.544,168.876 69.944 L 168.799 70.750 154.066 70.707 L 139.333 70.663 139.333 69.915 C 139.333 68.629,138.024 67.976,137.167 68.833 C 136.636 69.364,136.647 84.718,137.179 85.394 C 137.926 86.344,139.333 85.698,139.333 84.405 L 139.333 83.667 153.883 83.667 C 164.978 83.667,168.481 83.619,168.633 83.467 C 168.789 83.311,168.833 83.401,168.833 83.872 C 168.833 85.625,169.188 85.833,172.179 85.833 C 173.547 85.833,174.667 85.880,174.667 85.938 C 174.667 85.995,174.273 86.672,173.792 87.442 C 173.310 88.213,172.842 88.972,172.750 89.130 C 172.415 89.709,168.099 96.616,167.393 97.703 C 166.994 98.319,166.667 98.857,166.667 98.900 C 166.667 98.942,166.367 99.428,166.000 99.980 C 165.633 100.532,165.333 101.017,165.333 101.058 C 165.333 101.099,164.883 101.810,164.333 102.640 C 163.783 103.469,163.333 104.184,163.333 104.229 C 163.333 104.273,163.052 104.748,162.708 105.284 C 162.365 105.820,161.993 106.407,161.883 106.588 C 161.468 107.271,159.732 110.038,159.295 110.713 C 159.045 111.100,158.763 111.567,158.668 111.750 C 158.573 111.933,158.010 112.833,157.417 113.750 C 156.824 114.667,156.185 115.679,155.998 116.000 C 155.810 116.321,155.511 116.808,155.333 117.083 C 155.155 117.358,154.855 117.846,154.667 118.167 C 154.479 118.487,154.032 119.200,153.672 119.750 C 153.313 120.300,152.779 121.162,152.485 121.667 C 152.192 122.171,151.635 123.071,151.249 123.667 C 150.862 124.263,149.853 125.875,149.006 127.250 C 145.547 132.861,145.953 132.448,144.947 131.375 C 144.539 130.940,143.889 130.246,143.503 129.833 C 143.116 129.421,142.164 128.314,141.387 127.375 C 139.220 124.756,139.588 124.636,134.683 129.566 C 132.667 131.592,130.901 133.347,130.759 133.465 C 129.782 134.276,131.093 136.077,136.844 141.825 C 140.251 145.230,142.221 146.945,145.833 149.651 C 147.621 150.991,148.138 151.363,149.090 152.000 C 149.296 152.137,149.814 152.494,150.240 152.792 C 150.667 153.090,151.053 153.333,151.098 153.333 C 151.143 153.333,151.383 153.473,151.632 153.644 C 153.139 154.682,154.759 155.626,157.399 157.006 C 158.122 157.384,158.835 157.761,158.982 157.844 C 160.513 158.705,166.566 161.266,169.583 162.329 C 171.302 162.935,174.391 163.859,176.250 164.323 C 176.983 164.506,178.188 164.808,178.928 164.995 C 179.668 165.181,180.431 165.333,180.624 165.333 C 180.817 165.333,181.655 165.490,182.487 165.682 L 184.000 166.030 184.000 167.691 L 184.000 169.352 183.630 169.093 C 183.248 168.825,172.803 168.690,171.868 168.940 C 170.651 169.266,170.571 174.933,171.776 175.482 C 172.436 175.782,182.954 175.732,183.542 175.426 L 184.000 175.186 184.000 176.151 C 184.000 177.808,182.698 177.667,197.934 177.667 C 213.729 177.667,212.000 177.975,212.000 175.161 L 212.000 173.175 212.428 173.337 C 212.663 173.427,214.013 173.500,215.428 173.500 L 218.000 173.500 218.000 173.992 C 218.000 175.490,218.485 175.667,222.600 175.667 C 227.093 175.667,227.000 175.739,227.000 172.234 C 227.000 168.678,227.206 168.833,222.474 168.833 L 218.974 168.833 218.487 169.321 C 218.130 169.677,218.000 169.967,218.000 170.404 L 218.000 171.000 215.322 171.000 C 213.795 171.000,212.506 171.074,212.322 171.173 C 212.010 171.340,212.000 171.263,212.000 168.684 C 212.000 166.293,212.030 166.014,212.292 165.938 C 212.452 165.891,213.221 165.729,214.000 165.578 C 217.223 164.954,220.198 164.244,222.167 163.630 C 222.762 163.444,223.700 163.152,224.250 162.981 C 225.214 162.681,227.627 161.853,228.833 161.407 C 229.154 161.289,229.979 160.956,230.667 160.668 C 231.354 160.379,232.104 160.083,232.333 160.010 C 232.563 159.936,233.050 159.724,233.417 159.538 C 233.783 159.352,235.058 158.727,236.250 158.150 C 238.153 157.229,241.108 155.651,241.833 155.170 C 241.971 155.078,242.346 154.852,242.667 154.667 C 244.823 153.422,251.348 148.907,251.917 148.266 C 252.008 148.163,252.908 147.408,253.917 146.588 C 256.069 144.837,261.613 139.351,263.813 136.795 C 266.101 134.135,266.267 134.588,261.156 129.542 C 256.248 124.697,256.568 124.814,254.674 127.174 C 253.273 128.920,250.292 132.167,250.090 132.167 C 250.017 132.167,248.000 129.189,248.000 129.081 C 248.000 129.052,247.238 127.804,246.307 126.306 C 245.376 124.809,243.756 122.196,242.706 120.500 C 241.657 118.804,240.487 116.927,240.107 116.328 C 239.727 115.729,239.327 115.091,239.217 114.911 C 238.762 114.168,237.051 111.441,236.628 110.787 C 236.378 110.400,236.095 109.933,236.000 109.750 C 235.905 109.567,235.607 109.079,235.339 108.667 C 235.071 108.254,234.619 107.542,234.333 107.083 C 234.048 106.625,233.595 105.912,233.327 105.500 C 233.059 105.087,232.762 104.600,232.667 104.417 C 232.571 104.233,232.289 103.767,232.038 103.380 C 231.788 102.993,231.133 101.956,230.583 101.076 C 230.033 100.195,229.454 99.275,229.296 99.029 C 229.139 98.784,228.856 98.321,228.670 98.000 C 228.236 97.256,228.116 97.064,226.958 95.278 C 226.431 94.464,226.000 93.765,226.000 93.725 C 226.000 93.684,225.700 93.199,225.333 92.647 C 224.967 92.095,224.667 91.611,224.667 91.571 C 224.667 91.480,223.070 88.984,222.839 88.715 C 222.744 88.605,222.667 88.477,222.667 88.431 C 222.667 88.350,217.480 79.977,216.107 77.842 C 215.728 77.251,215.342 76.635,215.250 76.473 C 215.047 76.114,211.929 71.108,211.295 70.123 C 211.045 69.735,210.763 69.267,210.668 69.083 C 210.573 68.900,210.010 68.000,209.417 67.083 C 208.824 66.167,208.185 65.154,207.998 64.833 C 207.810 64.512,207.511 64.025,207.333 63.750 C 207.155 63.475,206.856 62.987,206.670 62.667 C 206.483 62.346,206.239 61.954,206.127 61.797 C 205.957 61.556,206.006 61.423,206.433 60.963 C 212.727 54.197,209.940 43.709,201.150 41.078 C 199.825 40.682,196.879 40.521,195.750 40.783 M199.917 43.084 C 208.740 44.936,210.369 56.898,202.375 61.134 C 200.650 62.048,201.023 63.984,202.770 63.188 C 202.997 63.085,203.216 63.000,203.258 63.000 C 203.299 63.000,203.333 81.814,203.333 104.808 L 203.333 146.617 201.958 146.193 C 199.385 145.401,195.430 145.578,192.755 146.604 C 192.527 146.692,192.500 143.565,192.500 116.518 C 192.500 86.855,192.494 86.328,192.176 86.010 C 191.856 85.689,191.885 85.685,195.168 85.635 C 197.609 85.597,198.541 85.526,198.700 85.367 C 199.056 85.011,199.103 69.599,198.751 69.061 C 198.493 68.668,198.483 68.667,195.134 68.667 L 191.775 68.667 192.138 68.281 C 192.476 67.921,192.500 67.732,192.500 65.430 C 192.500 63.145,192.521 62.973,192.792 63.089 C 193.845 63.539,194.667 63.202,194.667 62.320 C 194.667 61.883,194.026 61.167,193.635 61.167 C 193.322 61.167,191.559 59.852,190.871 59.104 C 184.546 52.243,190.799 41.170,199.917 43.084 M196.680 47.423 C 192.906 48.472,191.443 52.883,193.882 55.861 C 196.926 59.578,202.862 57.637,203.129 52.839 C 203.330 49.232,200.059 46.485,196.680 47.423 M199.113 49.752 C 201.246 50.643,201.584 53.530,199.721 54.950 C 198.878 55.592,197.052 55.632,196.205 55.028 C 193.334 52.980,195.862 48.393,199.113 49.752 M206.250 66.278 C 206.617 66.883,207.070 67.611,207.256 67.897 C 207.443 68.183,208.150 69.317,208.826 70.417 C 209.503 71.517,210.296 72.792,210.590 73.250 C 210.884 73.708,212.004 75.508,213.080 77.250 C 214.156 78.992,215.208 80.679,215.418 81.000 C 215.628 81.321,217.431 84.208,219.425 87.417 C 221.419 90.625,224.827 96.100,226.999 99.583 C 229.171 103.067,232.020 107.642,233.330 109.750 C 234.641 111.858,236.045 114.108,236.452 114.750 C 236.858 115.392,238.262 117.642,239.572 119.750 C 240.882 121.858,243.428 125.946,245.231 128.833 L 248.507 134.083 247.737 134.792 C 247.314 135.181,246.916 135.500,246.852 135.500 C 246.740 135.500,245.429 133.418,235.890 118.089 C 233.493 114.236,231.408 110.915,231.258 110.708 C 230.740 109.998,230.148 110.199,228.626 111.603 C 224.287 115.604,215.963 119.644,206.389 122.393 C 205.338 122.695,205.333 122.691,205.333 121.409 L 205.333 120.373 206.792 119.920 C 214.220 117.612,221.413 114.283,225.362 111.325 C 226.987 110.109,228.988 108.191,229.100 107.742 C 229.209 107.307,229.524 107.843,223.334 97.917 C 221.162 94.433,217.375 88.358,214.919 84.417 C 212.463 80.475,209.302 75.405,207.894 73.149 L 205.333 69.048 205.333 67.107 C 205.333 64.851,205.367 64.821,206.250 66.278 M173.345 72.125 C 173.357 73.673,173.354 80.154,173.341 81.625 L 173.333 82.500 172.250 82.500 L 171.167 82.500 171.167 81.657 C 171.167 80.820,171.169 80.816,171.537 81.074 C 172.285 81.598,173.167 81.190,173.167 80.319 C 173.167 79.435,172.308 79.053,171.537 79.593 L 171.167 79.852 171.167 77.067 C 171.167 74.379,171.177 74.291,171.471 74.558 C 172.168 75.188,173.167 74.810,173.167 73.917 C 173.167 73.023,172.168 72.645,171.471 73.276 C 171.178 73.541,171.167 73.496,171.167 72.109 L 171.167 70.667 172.250 70.667 L 173.333 70.667 173.345 72.125 M196.960 77.125 L 196.917 83.583 194.750 83.583 L 192.583 83.583 192.530 82.834 C 192.430 81.424,190.500 80.894,190.500 82.276 C 190.500 82.460,189.231 82.500,183.375 82.503 C 176.089 82.505,176.024 82.510,175.699 83.083 C 175.556 83.336,175.509 81.914,175.505 77.171 C 175.500 71.472,175.523 70.958,175.759 71.296 L 176.019 71.667 183.259 71.667 C 189.122 71.667,190.500 71.708,190.500 71.885 C 190.500 72.226,191.144 72.833,191.506 72.833 C 192.085 72.833,192.500 72.241,192.500 71.417 L 192.500 70.667 194.752 70.667 L 197.004 70.667 196.960 77.125 M169.167 77.196 L 169.167 82.225 168.782 81.863 L 168.397 81.502 153.740 81.459 L 139.083 81.417 139.083 77.167 L 139.083 72.917 153.815 72.833 C 167.612 72.755,168.559 72.731,168.731 72.458 C 169.122 71.838,169.167 72.322,169.167 77.196 M206.640 75.385 C 206.946 75.856,207.305 76.431,207.437 76.662 C 207.569 76.894,207.822 77.308,208.000 77.583 C 208.178 77.858,208.478 78.346,208.666 78.667 C 208.854 78.987,209.304 79.700,209.667 80.250 C 210.029 80.800,210.479 81.512,210.667 81.833 C 211.425 83.130,212.980 85.624,213.958 87.114 C 214.348 87.707,214.667 88.228,214.667 88.271 C 214.667 88.314,214.967 88.801,215.333 89.353 C 215.700 89.905,216.000 90.393,216.000 90.438 C 216.000 90.483,216.450 91.198,217.000 92.027 C 217.550 92.856,218.000 93.568,218.000 93.609 C 218.000 93.650,218.300 94.135,218.667 94.687 C 219.033 95.239,219.333 95.725,219.333 95.767 C 219.333 95.809,219.661 96.348,220.061 96.964 C 220.735 97.999,223.442 102.325,223.888 103.079 C 223.996 103.261,224.346 103.825,224.667 104.333 C 225.270 105.290,225.354 105.425,226.096 106.647 L 226.540 107.377 225.728 108.098 C 225.282 108.494,224.809 108.913,224.677 109.028 C 222.066 111.315,214.246 115.151,208.417 117.007 C 207.775 117.211,206.967 117.481,206.622 117.606 C 206.276 117.731,205.920 117.833,205.830 117.833 C 205.724 117.833,205.670 110.107,205.676 95.875 C 205.684 78.824,205.731 73.985,205.885 74.222 C 205.994 74.390,206.334 74.913,206.640 75.385 M180.833 84.593 C 180.833 84.643,180.467 85.262,180.019 85.968 C 179.298 87.101,171.891 98.989,168.195 104.943 C 166.495 107.680,166.491 107.749,167.909 109.106 C 172.343 113.348,179.657 116.993,190.292 120.259 C 190.729 120.393,190.564 122.650,190.125 122.549 C 181.946 120.673,170.550 115.086,166.591 111.011 C 165.942 110.343,165.363 110.161,164.874 110.471 C 164.690 110.588,163.526 112.408,160.484 117.333 C 158.866 119.954,149.970 134.244,149.564 134.875 C 149.070 135.643,149.081 135.644,148.188 134.838 C 147.300 134.037,147.005 134.732,150.843 128.568 C 154.717 122.346,161.114 112.077,164.590 106.500 C 165.990 104.254,168.862 99.642,170.974 96.250 C 174.765 90.161,175.995 88.194,177.539 85.749 L 178.329 84.500 179.581 84.500 C 180.270 84.500,180.833 84.542,180.833 84.593 M190.532 85.242 C 190.776 85.733,190.782 85.835,190.574 86.008 C 190.367 86.179,190.333 88.465,190.333 102.097 L 190.333 117.986 189.292 117.638 C 188.719 117.446,187.884 117.149,187.436 116.978 C 186.988 116.807,186.544 116.667,186.447 116.667 C 185.407 116.667,177.093 112.815,173.751 110.785 C 173.145 110.416,170.425 108.349,169.867 107.833 L 169.317 107.324 169.659 106.845 C 169.846 106.581,170.000 106.328,170.000 106.283 C 170.000 106.238,170.450 105.523,171.000 104.694 C 171.550 103.864,172.000 103.149,172.000 103.105 C 172.000 103.060,172.300 102.572,172.667 102.020 C 173.033 101.468,173.333 100.977,173.333 100.930 C 173.333 100.854,174.120 99.631,175.026 98.298 C 175.195 98.050,175.333 97.812,175.333 97.769 C 175.333 97.725,175.615 97.252,175.958 96.716 C 176.302 96.180,176.672 95.593,176.781 95.412 C 177.198 94.718,178.259 93.029,179.082 91.750 C 179.553 91.017,179.992 90.304,180.056 90.167 C 180.120 90.029,180.392 89.579,180.660 89.167 C 180.928 88.754,181.381 88.042,181.667 87.583 C 181.952 87.125,182.407 86.412,182.677 86.000 C 182.948 85.587,183.215 85.119,183.271 84.958 C 183.363 84.693,183.684 84.667,186.811 84.671 L 190.250 84.675 190.532 85.242 M197.276 92.471 C 197.022 92.752,197.000 94.674,197.000 116.718 L 197.000 140.659 197.418 140.933 C 197.938 141.274,198.748 141.007,198.899 140.445 C 199.220 139.247,198.995 92.829,198.667 92.500 C 198.251 92.084,197.638 92.071,197.276 92.471 M166.000 113.482 C 166.000 113.635,169.360 116.189,170.040 116.553 C 170.247 116.664,170.829 117.020,171.333 117.344 C 172.500 118.093,175.391 119.550,177.750 120.577 C 178.758 121.016,179.901 121.516,180.290 121.687 C 180.678 121.859,181.052 122.000,181.120 122.000 C 181.188 122.000,181.638 122.153,182.119 122.340 C 184.472 123.252,188.576 124.552,189.708 124.743 L 190.333 124.848 190.333 136.260 L 190.333 147.672 189.796 147.998 C 189.500 148.178,188.726 148.847,188.076 149.485 C 186.992 150.548,186.556 151.096,185.772 152.376 C 185.517 152.792,185.424 152.827,184.787 152.741 C 182.288 152.405,176.541 150.868,173.250 149.655 C 169.738 148.361,168.596 147.870,165.250 146.212 C 162.704 144.950,161.161 144.119,160.474 143.641 C 160.231 143.472,159.993 143.333,159.944 143.333 C 159.896 143.333,159.383 143.023,158.803 142.645 C 157.105 141.535,155.437 140.427,155.254 140.287 C 154.227 139.506,153.139 138.687,152.768 138.417 C 150.739 136.937,150.755 137.097,152.377 134.627 C 152.903 133.825,153.333 133.137,153.333 133.097 C 153.333 133.056,153.633 132.572,154.000 132.020 C 154.367 131.468,154.667 130.974,154.667 130.923 C 154.667 130.872,154.915 130.474,155.218 130.040 C 155.521 129.605,156.012 128.837,156.310 128.333 C 156.608 127.829,157.071 127.079,157.339 126.667 C 157.607 126.254,157.905 125.767,158.000 125.583 C 158.095 125.400,158.393 124.912,158.661 124.500 C 158.929 124.087,159.381 123.375,159.667 122.917 C 159.952 122.458,160.405 121.746,160.673 121.333 C 160.941 120.921,161.238 120.433,161.333 120.250 C 161.429 120.067,161.711 119.600,161.962 119.213 C 162.212 118.826,162.867 117.789,163.417 116.909 C 163.967 116.029,164.547 115.108,164.706 114.863 C 164.866 114.617,165.123 114.173,165.279 113.875 C 165.538 113.379,166.000 113.127,166.000 113.482 M230.667 113.958 C 230.855 114.302,231.304 115.033,231.667 115.583 C 232.029 116.133,232.478 116.846,232.664 117.167 C 232.851 117.487,233.096 117.897,233.210 118.076 C 233.940 119.227,235.207 121.240,235.763 122.133 C 236.122 122.710,236.546 123.385,236.704 123.633 C 236.861 123.881,237.144 124.346,237.330 124.667 C 237.764 125.411,237.884 125.602,239.042 127.389 C 239.569 128.202,240.000 128.901,240.000 128.942 C 240.000 128.983,240.300 129.468,240.667 130.020 C 241.033 130.572,241.333 131.056,241.333 131.095 C 241.333 131.186,242.930 133.682,243.161 133.951 C 243.256 134.062,243.333 134.187,243.333 134.230 C 243.333 134.272,243.699 134.897,244.146 135.618 L 244.959 136.929 244.369 137.423 C 244.044 137.694,243.434 138.175,243.014 138.490 C 240.557 140.334,240.367 140.470,239.076 141.333 C 238.871 141.471,238.353 141.827,237.926 142.125 C 237.499 142.423,237.127 142.667,237.100 142.667 C 237.072 142.667,236.382 143.073,235.566 143.569 C 233.763 144.667,229.377 146.935,227.667 147.654 C 226.979 147.943,226.272 148.261,226.095 148.360 C 225.918 148.459,225.580 148.600,225.345 148.672 C 225.109 148.744,224.392 149.001,223.750 149.244 C 219.874 150.707,213.861 152.363,211.057 152.739 C 210.379 152.830,210.355 152.816,209.926 152.084 C 209.237 150.908,207.919 149.412,206.744 148.470 L 205.667 147.607 205.667 136.233 L 205.667 124.860 206.208 124.750 C 209.331 124.116,216.605 121.436,220.583 119.454 C 223.049 118.225,223.879 117.792,224.408 117.456 C 226.474 116.146,228.109 115.008,229.000 114.260 C 230.300 113.169,230.243 113.180,230.667 113.958 M140.332 129.667 C 151.093 142.436,168.097 152.221,184.192 154.907 L 184.801 155.009 184.546 155.879 C 184.368 156.486,184.267 157.798,184.212 160.208 C 184.163 162.354,184.070 163.667,183.966 163.667 C 183.195 163.667,175.960 161.985,173.667 161.272 C 172.874 161.026,172.885 161.054,173.109 159.871 C 173.402 158.314,171.419 158.236,171.089 159.792 C 171.025 160.090,170.883 160.333,170.771 160.333 C 170.142 160.333,161.079 156.569,160.529 156.079 C 160.500 156.053,160.593 155.803,160.738 155.524 C 161.509 154.033,160.009 152.720,159.201 154.179 C 158.614 155.239,158.791 155.269,155.917 153.611 C 153.348 152.129,149.417 149.603,149.244 149.324 C 149.199 149.250,149.350 148.911,149.581 148.572 C 150.578 147.102,149.004 146.037,147.889 147.428 L 147.412 148.022 146.248 147.144 C 144.723 145.995,141.916 143.602,140.278 142.057 L 138.972 140.826 139.486 140.240 C 140.644 138.922,139.373 137.621,138.030 138.750 C 137.758 138.979,137.488 139.167,137.431 139.167 C 137.210 139.167,133.167 134.696,133.167 134.452 C 133.167 134.267,139.051 128.322,139.181 128.376 C 139.235 128.398,139.753 128.979,140.332 129.667 M262.507 134.822 C 261.921 135.640,258.648 139.167,258.473 139.167 C 258.377 139.167,258.075 138.979,257.803 138.750 C 256.502 137.655,255.277 138.883,256.414 140.142 L 257.011 140.803 254.714 142.886 C 252.622 144.783,250.808 146.303,249.116 147.576 L 248.482 148.054 247.979 147.443 C 246.878 146.109,245.265 147.263,246.333 148.621 C 246.914 149.359,247.005 149.278,242.242 152.265 C 238.574 154.565,237.215 155.248,237.090 154.855 C 236.757 153.806,235.789 153.354,235.138 153.942 C 234.765 154.280,234.755 154.606,235.093 155.414 C 235.236 155.756,235.319 156.070,235.277 156.112 C 234.965 156.424,229.050 158.947,226.313 159.935 C 224.945 160.429,225.062 160.443,224.833 159.748 C 224.577 158.972,224.245 158.667,223.659 158.667 C 222.905 158.667,222.552 159.315,222.838 160.179 C 222.970 160.582,222.996 160.901,222.903 160.989 C 222.726 161.157,219.114 162.204,217.412 162.580 C 216.057 162.879,212.130 163.664,211.982 163.666 C 211.926 163.666,211.836 162.260,211.783 160.542 C 211.726 158.685,211.581 156.943,211.426 156.250 C 211.284 155.608,211.167 155.068,211.167 155.049 C 211.167 155.030,211.448 154.967,211.792 154.908 C 227.896 152.157,244.079 142.872,255.301 129.946 L 256.722 128.309 259.768 131.351 L 262.813 134.393 262.507 134.822 M200.832 148.009 C 204.851 148.952,208.079 152.113,209.359 156.360 C 209.716 157.544,209.730 157.873,209.792 166.542 L 209.856 175.500 198.005 175.500 L 186.153 175.500 186.202 166.292 L 186.250 157.083 186.736 155.691 C 188.780 149.838,194.754 146.582,200.832 148.009 M196.500 149.938 C 187.740 151.623,185.449 162.683,192.862 167.502 C 199.039 171.517,207.500 166.844,207.500 159.417 C 207.500 153.729,201.896 148.900,196.500 149.938 M199.533 152.076 C 205.285 153.295,207.432 160.612,203.247 164.731 C 197.178 170.704,187.461 163.619,191.273 156.000 C 192.775 152.998,196.202 151.370,199.533 152.076 M184.167 172.274 L 184.167 174.215 183.758 173.774 L 183.349 173.333 178.341 173.333 L 173.333 173.333 173.333 172.257 L 173.333 171.180 178.438 171.132 C 183.522 171.084,183.544 171.082,183.792 170.708 C 184.161 170.152,184.167 170.174,184.167 172.274 M224.667 172.250 L 224.667 173.333 222.500 173.333 L 220.333 173.333 220.333 172.250 L 220.333 171.167 222.500 171.167 L 224.667 171.167 224.667 172.250 " stroke="none" fill="#1c1b1b" fill-rule="evenodd"></path><path id="path1" d="M195.917 43.183 C 187.386 44.899,185.733 56.920,193.469 60.979 C 195.298 61.938,195.093 64.034,193.239 63.329 C 193.004 63.240,192.779 63.167,192.739 63.167 C 192.699 63.167,192.667 64.200,192.667 65.463 C 192.667 67.271,192.612 67.838,192.407 68.130 L 192.148 68.500 195.222 68.500 C 198.001 68.500,198.334 68.531,198.690 68.819 L 199.083 69.137 199.083 77.051 C 199.083 86.771,199.569 85.667,195.298 85.667 L 192.148 85.667 192.407 86.037 C 192.640 86.369,192.667 89.531,192.667 116.472 C 192.667 145.039,192.681 146.530,192.958 146.414 C 195.224 145.467,199.365 145.291,201.792 146.038 L 203.167 146.461 203.167 104.814 C 203.167 81.908,203.124 63.167,203.072 63.167 C 203.021 63.167,202.826 63.248,202.641 63.347 C 202.170 63.599,201.359 63.244,201.230 62.729 C 201.037 61.961,201.285 61.572,202.319 61.021 C 212.073 55.822,206.754 41.003,195.917 43.183 M199.595 47.414 C 203.255 48.516,204.505 53.276,201.894 56.171 C 199.530 58.793,194.959 58.277,193.284 55.199 C 190.940 50.893,194.905 46.003,199.595 47.414 M359.319 50.894 C 359.281 50.928,358.500 51.002,357.583 51.058 C 354.669 51.238,350.185 51.493,346.903 51.666 C 340.277 52.016,333.334 52.508,327.917 53.010 C 326.817 53.112,325.242 53.245,324.417 53.306 L 322.917 53.417 322.861 54.333 C 322.831 54.837,322.858 56.104,322.921 57.148 L 323.036 59.046 324.476 58.935 C 326.546 58.774,334.757 58.211,339.333 57.915 C 341.488 57.776,344.113 57.592,345.167 57.506 C 346.221 57.420,347.946 57.305,349.000 57.250 C 350.054 57.196,352.379 57.044,354.167 56.913 C 361.162 56.401,367.597 56.208,367.407 56.516 C 367.271 56.735,370.020 56.642,375.562 56.240 C 379.355 55.965,382.500 55.927,382.500 56.156 C 382.500 56.242,382.256 56.345,381.958 56.386 C 381.660 56.426,382.110 56.450,382.957 56.438 C 384.731 56.413,384.646 56.208,383.775 58.405 C 383.273 59.671,382.834 60.205,382.832 59.556 C 382.831 59.082,382.448 59.901,381.915 61.521 C 381.131 63.899,380.655 64.852,380.304 64.741 C 380.137 64.688,380.000 64.678,380.000 64.719 C 380.000 64.987,378.709 68.441,378.276 69.333 C 377.782 70.351,377.746 70.386,377.688 69.917 C 377.618 69.350,377.770 68.990,376.209 73.417 C 375.268 76.087,374.891 76.889,374.648 76.739 C 374.554 76.680,374.524 76.509,374.582 76.358 C 374.651 76.177,374.631 76.140,374.523 76.250 C 374.433 76.342,374.208 76.867,374.023 77.417 C 371.554 84.746,370.353 87.684,370.589 85.822 C 370.626 85.528,370.629 85.317,370.595 85.352 C 370.523 85.427,369.418 88.423,369.280 88.917 C 369.157 89.354,366.719 96.379,365.838 98.833 C 364.747 101.873,360.370 114.896,358.415 120.917 C 357.433 123.942,356.414 127.054,356.149 127.833 C 355.589 129.486,355.578 129.570,355.938 129.431 C 356.401 129.254,354.676 135.488,353.576 137.964 C 353.298 138.592,353.254 139.236,353.500 139.083 C 353.834 138.877,353.651 140.109,353.140 141.500 C 352.854 142.279,352.461 143.380,352.266 143.947 C 352.072 144.513,351.857 145.032,351.790 145.099 C 351.722 145.167,351.672 145.341,351.678 145.486 C 351.687 145.680,351.728 145.662,351.833 145.417 C 351.912 145.233,351.982 145.168,351.988 145.271 C 351.995 145.375,351.887 145.729,351.750 146.058 C 351.430 146.823,351.433 147.186,351.755 146.760 C 352.119 146.279,352.076 146.430,351.167 148.833 C 350.304 151.114,350.218 151.424,350.500 151.250 C 350.973 150.957,350.669 152.049,349.116 156.208 C 348.799 157.058,348.752 157.333,348.922 157.333 C 349.351 157.333,349.333 157.644,348.824 159.027 C 348.543 159.791,348.206 160.746,348.074 161.149 C 347.943 161.551,347.771 161.964,347.692 162.065 C 347.613 162.167,347.503 162.438,347.447 162.667 L 347.347 163.083 347.670 162.667 L 347.993 162.250 347.996 162.815 C 347.998 163.126,347.738 164.045,347.417 164.856 C 347.096 165.667,346.833 166.362,346.833 166.399 C 346.833 166.588,349.180 167.667,349.592 167.667 C 349.610 167.667,349.863 167.048,350.155 166.292 C 350.447 165.535,350.828 164.579,351.001 164.167 C 352.469 160.667,353.875 156.615,353.582 156.727 C 353.398 156.798,353.380 156.733,353.498 156.423 C 353.580 156.206,354.111 154.841,354.678 153.389 C 355.244 151.938,355.725 150.675,355.745 150.583 C 355.789 150.391,356.015 149.816,356.129 149.608 C 356.172 149.530,356.058 149.546,355.877 149.643 C 355.350 149.926,355.847 148.124,357.250 144.667 C 357.492 144.071,357.906 143.021,358.169 142.333 C 358.433 141.646,358.882 140.483,359.166 139.750 C 360.032 137.522,361.167 134.448,361.161 134.346 C 361.158 134.293,361.046 134.396,360.911 134.574 C 360.539 135.065,360.583 134.486,360.977 133.702 C 361.148 133.362,361.340 132.801,361.402 132.456 C 361.465 132.111,361.737 131.286,362.007 130.623 C 362.278 129.959,362.499 129.354,362.499 129.278 C 362.500 129.202,362.680 128.677,362.901 128.112 C 363.739 125.963,370.397 109.060,373.548 101.083 C 374.960 97.508,376.574 93.421,377.135 92.000 C 378.434 88.709,379.381 86.495,379.986 85.333 C 380.248 84.829,380.558 84.098,380.675 83.708 C 380.791 83.319,380.949 83.000,381.026 83.000 C 381.235 83.000,381.196 83.382,380.948 83.755 C 380.660 84.188,380.255 85.477,380.370 85.592 C 380.420 85.642,380.669 85.098,380.925 84.383 C 381.181 83.668,381.441 83.008,381.503 82.917 C 381.566 82.825,382.726 79.975,384.083 76.583 C 385.439 73.192,386.675 70.229,386.831 70.000 C 386.986 69.771,387.160 69.452,387.218 69.292 C 387.276 69.131,387.408 69.000,387.513 69.000 C 387.617 69.000,387.658 69.116,387.603 69.259 C 387.548 69.401,387.564 69.480,387.638 69.434 C 387.712 69.388,388.330 67.960,389.011 66.260 C 389.759 64.395,390.326 63.197,390.441 63.239 C 390.756 63.355,392.333 59.562,392.333 58.688 C 392.333 58.087,392.631 57.209,393.025 56.641 C 393.269 56.290,393.333 55.886,393.333 54.696 C 393.333 52.608,393.377 52.667,391.825 52.667 C 390.542 52.667,390.035 52.464,390.520 52.145 C 390.659 52.054,389.649 52.038,387.975 52.105 C 385.156 52.217,384.359 52.143,384.838 51.813 C 385.006 51.697,384.271 51.674,382.500 51.739 C 381.079 51.791,379.654 51.766,379.333 51.684 C 379.012 51.602,378.844 51.526,378.958 51.517 C 379.073 51.508,379.167 51.435,379.167 51.356 C 379.167 51.277,378.998 51.231,378.792 51.253 C 378.585 51.275,376.982 51.348,375.230 51.415 C 372.106 51.534,371.369 51.443,372.111 51.028 C 372.419 50.855,371.230 50.893,367.425 51.174 C 364.431 51.395,361.882 51.380,361.734 51.141 C 361.669 51.035,361.687 50.993,361.774 51.047 C 361.861 51.101,362.042 51.076,362.175 50.992 C 362.332 50.892,361.888 50.838,360.903 50.836 C 360.070 50.834,359.358 50.861,359.319 50.894 M344.250 51.178 C 343.530 51.286,343.582 51.296,344.637 51.250 C 345.309 51.221,345.903 51.153,345.957 51.099 C 346.078 50.977,345.360 51.011,344.250 51.178 M338.958 51.618 C 339.165 51.657,339.502 51.657,339.708 51.618 C 339.915 51.578,339.746 51.545,339.333 51.545 C 338.921 51.545,338.752 51.578,338.958 51.618 M335.875 51.782 C 336.035 51.823,336.298 51.823,336.458 51.782 C 336.619 51.740,336.487 51.705,336.167 51.705 C 335.846 51.705,335.715 51.740,335.875 51.782 M365.609 56.675 C 365.164 56.749,364.752 56.864,364.692 56.929 C 364.632 56.994,364.836 57.000,365.146 56.941 C 365.455 56.882,365.966 56.833,366.281 56.833 C 366.620 56.833,366.811 56.765,366.750 56.667 C 366.693 56.575,366.595 56.509,366.532 56.520 C 366.468 56.530,366.053 56.600,365.609 56.675 M189.958 63.517 C 189.797 63.828,188.916 65.283,188.000 66.750 L 186.333 69.417 188.261 69.464 L 190.190 69.511 190.636 69.032 C 191.079 68.559,191.080 68.551,190.750 68.297 C 190.450 68.065,190.408 67.787,190.333 65.495 L 190.250 62.950 189.958 63.517 M205.500 67.306 L 205.500 69.113 207.726 72.681 C 213.204 81.462,226.968 103.561,228.384 105.847 C 229.478 107.614,229.450 107.859,228.005 109.222 C 223.799 113.190,217.328 116.580,208.478 119.452 L 205.508 120.417 205.504 121.476 C 205.501 122.360,205.542 122.519,205.755 122.438 C 205.896 122.384,206.440 122.228,206.964 122.092 C 215.210 119.950,224.574 115.299,228.926 111.183 C 230.537 109.659,230.844 109.751,232.341 112.204 C 232.916 113.146,233.627 114.292,233.922 114.750 C 234.418 115.521,242.326 128.205,245.494 133.310 L 246.875 135.537 247.615 134.797 L 248.355 134.057 246.285 130.737 C 242.815 125.174,237.081 115.962,234.623 112.000 C 233.344 109.938,232.125 107.987,231.915 107.667 C 231.705 107.346,229.714 104.158,227.491 100.583 C 225.267 97.008,221.836 91.496,219.866 88.333 C 217.895 85.171,214.485 79.696,212.288 76.167 C 206.610 67.049,205.633 65.500,205.563 65.500 C 205.528 65.500,205.500 66.313,205.500 67.306 M171.333 72.033 C 171.333 72.967,171.378 73.189,171.533 73.033 C 171.876 72.690,172.785 72.791,173.074 73.204 C 173.318 73.552,173.333 73.492,173.333 72.204 L 173.333 70.833 172.333 70.833 L 171.333 70.833 171.333 72.033 M192.667 71.500 C 192.667 72.797,191.376 73.328,190.640 72.333 L 190.271 71.833 183.256 71.833 C 177.176 71.833,176.191 71.799,175.870 71.574 L 175.500 71.314 175.500 77.074 C 175.500 80.242,175.556 82.831,175.625 82.828 C 175.694 82.825,175.896 82.713,176.074 82.578 C 176.346 82.372,177.506 82.333,183.449 82.333 C 189.482 82.333,190.500 82.299,190.500 82.093 C 190.500 81.795,191.135 81.333,191.545 81.333 C 192.102 81.333,192.667 82.085,192.667 82.826 L 192.667 83.500 194.750 83.500 L 196.833 83.500 196.833 77.167 L 196.833 70.833 194.750 70.833 L 192.667 70.833 192.667 71.500 M168.417 72.756 C 168.005 72.944,165.366 72.986,153.542 72.992 L 139.167 73.000 139.167 77.167 L 139.167 81.333 153.713 81.333 C 166.609 81.333,168.301 81.363,168.630 81.593 L 169.000 81.852 169.000 77.176 C 169.000 74.604,168.981 72.506,168.958 72.514 C 168.935 72.521,168.692 72.630,168.417 72.756 M172.958 74.681 C 172.631 75.039,171.838 75.105,171.533 74.800 C 171.378 74.644,171.333 75.143,171.333 77.041 L 171.333 79.483 171.822 79.312 C 172.320 79.139,172.933 79.325,173.206 79.733 C 173.273 79.834,173.329 78.660,173.331 77.125 C 173.332 75.590,173.315 74.340,173.292 74.347 C 173.269 74.355,173.119 74.505,172.958 74.681 M172.843 81.183 C 172.453 81.508,172.273 81.518,171.625 81.251 C 171.379 81.150,171.333 81.225,171.333 81.732 L 171.333 82.333 172.333 82.333 L 173.333 82.333 173.333 81.583 C 173.333 81.171,173.315 80.836,173.292 80.839 C 173.269 80.842,173.067 80.997,172.843 81.183 M177.944 85.292 C 175.979 88.415,172.673 93.719,163.791 108.000 C 161.596 111.529,159.628 114.679,159.418 115.000 C 159.208 115.321,158.157 117.008,157.082 118.750 C 156.008 120.492,154.958 122.179,154.749 122.500 C 154.325 123.151,149.261 131.291,148.197 133.032 L 147.515 134.148 148.311 134.814 L 149.106 135.481 149.416 134.949 C 149.587 134.656,151.875 130.967,154.501 126.750 C 160.207 117.586,161.491 115.521,163.268 112.650 C 165.128 109.643,165.242 109.599,166.970 111.221 C 171.336 115.322,180.666 119.927,189.135 122.162 C 189.531 122.266,189.962 122.393,190.094 122.444 C 190.287 122.518,190.333 122.329,190.332 121.476 L 190.331 120.417 187.457 119.474 C 178.430 116.514,171.582 112.898,167.709 109.047 C 166.184 107.531,165.244 109.482,175.240 93.417 C 177.237 90.208,179.224 87.021,179.657 86.333 C 180.089 85.646,180.498 84.990,180.565 84.875 C 180.657 84.717,180.405 84.667,179.512 84.667 L 178.338 84.667 177.944 85.292 M317.500 86.583 C 315.695 87.018,315.743 86.898,312.966 97.750 C 312.778 98.483,312.489 99.608,312.323 100.250 C 312.157 100.892,311.860 102.054,311.664 102.833 C 311.255 104.452,310.826 106.080,310.376 107.718 L 310.065 108.853 309.677 107.551 C 309.464 106.836,309.157 105.763,308.994 105.167 C 308.832 104.571,308.534 103.483,308.333 102.750 C 308.132 102.017,307.835 100.929,307.672 100.333 C 307.256 98.805,306.695 96.770,306.341 95.500 C 306.175 94.904,305.871 93.779,305.666 93.000 C 303.945 86.472,303.790 86.338,298.226 86.553 C 294.832 86.683,293.988 87.178,293.486 89.332 C 293.222 90.462,293.630 118.074,293.926 119.090 C 294.673 121.660,298.346 122.118,299.670 119.805 L 300.083 119.083 300.048 107.083 L 300.013 95.083 300.351 96.250 C 300.747 97.623,301.169 99.205,301.662 101.167 C 301.857 101.946,302.159 103.108,302.332 103.750 C 302.506 104.392,302.809 105.554,303.007 106.333 C 303.395 107.859,303.837 109.559,304.330 111.417 C 304.500 112.058,304.799 113.221,304.995 114.000 C 305.190 114.779,305.497 115.904,305.677 116.500 C 305.858 117.096,306.004 117.644,306.002 117.719 C 305.986 118.633,307.493 120.454,308.628 120.892 C 310.601 121.653,313.454 120.502,313.926 118.754 C 313.976 118.568,314.154 117.929,314.322 117.333 C 314.687 116.039,314.974 114.909,315.254 113.667 C 315.368 113.162,315.590 112.225,315.749 111.583 C 315.908 110.942,316.175 109.854,316.344 109.167 C 317.202 105.670,317.373 104.990,317.674 103.879 C 317.853 103.216,318.000 102.549,318.000 102.396 C 318.000 102.244,318.139 101.624,318.309 101.018 C 318.480 100.412,318.785 99.204,318.988 98.333 C 319.191 97.462,319.445 96.412,319.553 96.000 L 319.750 95.250 319.857 96.250 C 319.916 96.800,319.972 101.929,319.982 107.647 C 319.995 114.907,320.057 118.236,320.190 118.680 C 321.055 121.566,324.858 121.871,326.264 119.167 C 326.823 118.094,326.671 89.891,326.098 88.318 C 325.454 86.548,321.203 85.690,317.500 86.583 M257.044 86.833 C 255.753 87.105,254.805 87.697,254.385 88.492 L 254.000 89.219 254.016 100.151 C 254.039 115.197,254.153 118.853,254.634 119.833 C 255.686 121.983,258.870 122.101,260.177 120.040 L 260.667 119.268 260.676 107.592 C 260.686 94.587,260.603 95.291,261.650 99.333 C 261.852 100.112,262.157 101.275,262.328 101.917 C 262.499 102.558,262.799 103.721,262.995 104.500 C 263.190 105.279,263.492 106.442,263.666 107.083 C 263.839 107.725,264.143 108.888,264.341 109.667 C 266.453 117.980,266.902 119.375,267.750 120.265 C 268.597 121.154,269.242 121.369,270.879 121.308 C 273.506 121.209,274.144 120.473,275.187 116.333 C 275.291 115.921,275.516 115.084,275.688 114.474 C 275.860 113.864,276.000 113.239,276.000 113.085 C 276.000 112.931,276.145 112.267,276.323 111.611 C 276.697 110.226,277.161 108.376,277.667 106.250 C 277.863 105.425,278.163 104.188,278.333 103.500 C 278.504 102.813,278.804 101.575,279.001 100.750 C 279.198 99.925,279.502 98.688,279.676 98.000 C 279.849 97.313,280.036 96.461,280.090 96.108 C 280.338 94.484,280.415 96.473,280.521 107.343 L 280.636 119.001 281.072 119.746 C 282.500 122.182,286.059 121.785,286.905 119.096 C 287.253 117.989,287.045 89.816,286.680 88.636 C 286.180 87.019,285.047 86.633,281.000 86.698 C 276.346 86.773,276.432 86.694,275.018 92.167 C 274.817 92.946,274.506 94.076,274.326 94.678 C 274.147 95.281,274.000 95.913,274.000 96.083 C 274.000 96.254,273.853 96.886,273.674 97.488 C 273.494 98.091,273.188 99.221,272.993 100.000 C 272.799 100.779,272.499 101.942,272.328 102.583 C 272.157 103.225,271.855 104.388,271.658 105.167 C 271.461 105.946,271.140 107.175,270.945 107.899 L 270.591 109.214 270.307 108.232 C 270.151 107.692,269.871 106.688,269.684 106.000 C 269.497 105.313,269.189 104.188,269.000 103.500 C 268.811 102.813,268.503 101.688,268.316 101.000 C 267.988 99.792,267.781 99.039,267.023 96.292 C 266.827 95.581,266.509 94.419,266.316 93.708 C 264.828 88.230,264.574 87.664,263.361 87.121 C 262.488 86.730,258.411 86.544,257.044 86.833 M74.167 88.466 C 71.868 89.077,69.937 90.012,68.660 91.130 C 67.684 91.985,67.325 92.350,66.737 93.083 C 64.318 96.098,63.333 99.258,63.333 104.000 C 63.333 110.724,65.644 115.300,70.500 118.195 C 72.816 119.576,77.734 120.177,81.174 119.499 C 82.848 119.169,86.000 117.855,86.000 117.488 C 86.000 117.403,86.101 117.333,86.225 117.333 C 86.500 117.333,88.253 115.492,88.848 114.579 C 89.669 113.320,89.820 113.031,90.162 112.059 C 91.053 109.528,90.678 108.029,88.929 107.132 C 87.501 106.400,86.021 107.000,85.255 108.621 C 84.151 110.959,83.722 111.719,83.171 112.313 C 79.954 115.783,73.963 115.297,71.479 111.364 C 69.349 107.991,69.225 101.457,71.215 97.417 C 73.157 93.475,79.051 91.828,82.098 94.377 C 82.773 94.941,83.874 96.130,84.065 96.500 C 84.182 96.729,84.434 97.188,84.624 97.519 C 84.813 97.850,85.069 98.300,85.193 98.518 C 86.881 101.511,90.667 100.715,90.667 97.367 C 90.667 94.466,88.058 91.141,84.437 89.430 C 81.335 87.963,77.432 87.596,74.167 88.466 M98.502 89.101 C 96.113 89.742,96.176 89.359,95.992 104.250 C 95.802 119.573,95.708 118.959,98.340 119.473 C 99.600 119.719,116.925 120.059,117.624 119.851 C 119.918 119.170,120.201 116.194,118.083 115.026 C 117.645 114.784,116.639 114.740,109.972 114.667 C 105.786 114.621,102.335 114.546,102.305 114.500 C 102.274 114.454,102.274 112.520,102.304 110.202 L 102.359 105.987 103.971 106.074 C 108.032 106.293,115.639 106.345,116.381 106.158 C 118.002 105.750,118.635 103.435,117.451 102.251 C 116.581 101.381,116.178 101.336,109.250 101.332 C 105.767 101.330,102.814 101.263,102.688 101.184 C 102.500 101.064,102.482 100.415,102.584 97.493 L 102.707 93.947 109.895 94.049 C 117.695 94.160,118.173 94.123,118.875 93.340 C 119.505 92.636,119.554 90.753,118.958 90.117 C 118.193 89.301,118.048 89.279,112.417 89.149 C 99.196 88.842,99.465 88.843,98.502 89.101 M135.167 89.243 C 132.765 89.620,130.406 90.673,128.500 92.217 C 121.339 98.021,121.403 112.183,128.616 117.972 C 132.413 121.020,139.673 121.707,144.333 119.460 C 150.449 116.512,152.930 108.000,147.673 108.000 C 145.966 108.000,145.733 108.235,144.411 111.283 C 144.164 111.851,143.821 112.444,143.648 112.600 C 143.475 112.757,143.333 112.948,143.333 113.024 C 143.333 113.146,142.835 113.654,142.105 114.278 C 139.067 116.871,132.828 115.476,131.067 111.811 C 130.272 110.157,130.137 109.695,129.885 107.768 C 128.718 98.872,133.498 92.617,140.033 94.486 C 142.079 95.071,143.160 96.076,144.838 98.950 C 146.015 100.970,146.468 101.332,147.814 101.333 C 150.588 101.335,151.599 97.915,149.645 95.141 C 149.474 94.898,149.333 94.627,149.333 94.538 C 149.333 94.300,147.098 92.000,146.866 92.000 C 146.756 92.000,146.667 91.932,146.667 91.849 C 146.667 91.688,145.508 90.960,144.417 90.436 C 141.776 89.167,138.410 88.733,135.167 89.243 M198.833 92.434 C 199.271 92.863,199.205 140.330,198.766 140.816 C 198.329 141.299,197.437 141.288,197.093 140.796 C 196.861 140.465,196.833 137.891,196.833 116.558 L 196.833 92.691 197.284 92.336 C 197.774 91.951,198.380 91.989,198.833 92.434 M361.361 109.658 C 361.264 109.938,361.219 110.167,361.263 110.167 C 361.375 110.167,361.690 109.301,361.607 109.218 C 361.569 109.181,361.459 109.378,361.361 109.658 M360.000 113.709 C 360.000 113.733,359.926 114.009,359.836 114.323 C 359.746 114.637,359.736 114.824,359.815 114.739 C 359.985 114.553,360.210 113.667,360.087 113.667 C 360.039 113.667,360.000 113.686,360.000 113.709 M136.117 131.466 L 133.153 134.434 134.868 136.328 C 135.812 137.369,136.771 138.438,137.000 138.703 L 137.417 139.184 138.000 138.682 C 138.903 137.905,139.755 138.071,140.062 139.084 C 140.170 139.441,139.627 140.500,139.336 140.500 C 138.596 140.500,141.783 143.531,145.891 146.736 L 147.366 147.886 147.924 147.276 C 149.124 145.967,150.758 147.271,149.667 148.667 C 149.487 148.896,149.339 149.132,149.337 149.192 C 149.328 149.467,155.601 153.452,157.782 154.557 L 158.638 154.991 158.960 154.371 C 159.736 152.873,161.668 153.599,161.046 155.154 C 160.952 155.390,160.829 155.696,160.773 155.833 C 160.664 156.104,160.801 156.176,164.500 157.793 C 166.573 158.698,170.383 160.167,170.662 160.167 C 170.742 160.167,170.894 159.904,171.000 159.584 C 171.362 158.486,172.380 158.166,173.001 158.956 C 173.351 159.400,173.360 159.604,173.074 160.602 C 173.002 160.854,173.059 160.979,173.278 161.044 C 176.714 162.051,182.880 163.500,183.731 163.500 C 183.911 163.500,183.975 162.827,184.043 160.208 C 184.104 157.867,184.205 156.677,184.393 156.087 C 184.708 155.096,184.723 155.113,183.250 154.843 C 181.212 154.471,175.820 153.044,173.833 152.352 C 170.633 151.238,170.114 151.042,168.231 150.240 C 157.840 145.813,147.310 138.110,140.332 129.833 C 139.753 129.146,139.234 128.564,139.180 128.541 C 139.125 128.518,137.747 129.834,136.117 131.466 M256.114 129.131 C 247.256 140.821,229.579 151.414,213.500 154.667 C 210.930 155.187,211.141 155.062,211.454 155.883 C 211.658 156.416,211.739 157.410,211.794 160.042 C 211.861 163.205,211.892 163.500,212.161 163.500 C 212.772 163.500,218.643 162.220,220.167 161.754 C 220.579 161.628,221.351 161.404,221.883 161.255 L 222.848 160.986 222.739 160.016 C 222.529 158.164,224.471 157.891,224.922 159.708 C 225.065 160.285,225.104 160.283,226.917 159.602 C 231.552 157.860,235.213 156.183,235.110 155.849 C 235.065 155.703,234.931 155.341,234.812 155.045 C 234.619 154.565,234.633 154.458,234.940 154.045 C 235.575 153.191,236.547 153.405,237.000 154.501 C 237.141 154.841,237.277 154.948,237.474 154.875 C 238.078 154.651,242.210 152.208,244.370 150.798 L 246.659 149.304 246.246 148.697 C 245.216 147.180,246.692 145.940,247.945 147.268 L 248.512 147.870 249.789 146.893 C 251.684 145.444,253.215 144.149,255.133 142.372 L 256.848 140.781 256.341 140.258 C 255.052 138.928,256.500 137.445,257.893 138.668 L 258.464 139.170 260.099 137.376 C 260.999 136.390,261.961 135.338,262.237 135.038 L 262.739 134.493 259.746 131.496 C 258.100 129.848,256.715 128.503,256.668 128.506 C 256.622 128.509,256.372 128.791,256.114 129.131 M361.671 132.745 C 361.451 133.010,361.108 134.303,361.321 134.062 C 361.477 133.886,362.022 132.500,361.936 132.500 C 361.902 132.500,361.783 132.610,361.671 132.745 M194.667 148.224 C 191.000 149.317,188.199 151.997,186.799 155.750 C 186.432 156.735,186.425 156.893,186.372 166.126 L 186.318 175.502 197.951 175.459 L 209.583 175.417 209.580 166.333 L 209.576 157.250 209.126 155.917 C 207.087 149.880,200.631 146.445,194.667 148.224 M200.417 150.109 C 205.245 151.328,208.418 156.378,207.412 161.247 C 205.876 168.683,197.000 171.637,191.487 166.547 C 184.070 159.700,190.623 147.638,200.417 150.109 M196.004 152.267 C 190.481 153.751,188.684 160.778,192.819 164.722 C 197.580 169.264,205.333 165.984,205.333 159.429 C 205.333 154.546,200.716 151.001,196.004 152.267 M322.833 166.266 C 320.054 166.672,318.017 166.743,318.417 166.420 C 318.734 166.163,318.718 166.155,318.083 166.236 C 317.717 166.283,316.404 166.446,315.167 166.597 C 313.929 166.749,312.297 166.966,311.540 167.080 C 310.783 167.194,309.995 167.270,309.790 167.248 C 309.585 167.227,309.267 167.194,309.083 167.174 C 308.806 167.145,308.834 167.099,309.250 166.895 L 309.750 166.651 309.179 166.744 C 308.865 166.795,307.965 166.910,307.179 166.999 C 306.393 167.089,304.887 167.280,303.833 167.423 C 301.749 167.707,297.792 168.200,294.500 168.585 C 293.354 168.719,291.704 168.938,290.833 169.073 C 289.962 169.207,287.825 169.509,286.083 169.744 C 284.342 169.979,282.242 170.283,281.417 170.420 C 277.852 171.012,274.765 171.474,270.167 172.102 C 267.872 172.415,267.618 172.484,268.083 172.666 C 268.765 172.933,265.438 173.596,260.000 174.278 C 259.587 174.330,259.137 174.444,259.000 174.532 C 258.793 174.664,258.799 174.677,259.036 174.603 C 259.495 174.461,259.530 174.766,259.079 174.972 C 258.853 175.075,257.636 175.311,256.376 175.497 C 252.816 176.021,252.335 176.108,252.205 176.252 C 252.138 176.326,252.203 176.344,252.348 176.292 C 252.494 176.240,252.706 176.255,252.820 176.325 C 253.083 176.488,251.505 176.882,249.037 177.270 C 247.711 177.479,247.180 177.626,247.235 177.770 C 247.364 178.108,246.751 178.259,242.868 178.848 C 241.915 178.993,241.691 179.078,241.829 179.245 C 242.090 179.559,241.409 179.775,239.167 180.090 C 237.162 180.371,236.193 180.627,237.000 180.662 L 237.417 180.680 236.939 180.939 C 236.677 181.081,235.964 181.267,235.356 181.352 C 233.518 181.610,233.606 181.527,233.732 182.890 C 233.871 184.385,233.866 184.381,235.348 184.167 C 238.324 183.736,241.359 183.290,242.703 183.087 C 243.502 182.966,244.264 182.760,244.396 182.628 C 244.528 182.496,245.299 182.297,246.109 182.186 C 249.898 181.665,250.974 181.458,250.900 181.266 C 250.753 180.884,252.013 180.612,257.167 179.913 C 263.367 179.073,265.346 178.714,264.989 178.493 C 264.756 178.349,264.977 178.276,266.167 178.104 C 266.487 178.058,267.575 177.870,268.583 177.687 C 269.592 177.503,271.804 177.159,273.500 176.921 C 275.196 176.683,277.296 176.381,278.167 176.249 C 279.037 176.118,281.175 175.816,282.917 175.578 C 284.658 175.341,287.921 174.888,290.167 174.572 C 292.412 174.257,295.337 173.851,296.667 173.670 C 297.996 173.490,301.258 173.047,303.917 172.685 C 311.411 171.666,314.607 171.359,314.409 171.679 C 314.272 171.901,314.834 171.861,318.250 171.404 C 319.258 171.270,320.908 171.049,321.917 170.915 C 325.785 170.398,326.387 170.333,327.355 170.333 C 327.978 170.333,328.314 170.396,328.250 170.500 C 328.102 170.739,328.622 170.711,331.499 170.323 C 333.331 170.076,334.083 170.031,334.164 170.163 C 334.227 170.265,334.497 170.310,334.764 170.265 C 335.031 170.219,336.000 170.105,336.917 170.011 C 337.833 169.916,339.221 169.725,340.000 169.586 C 340.779 169.447,341.768 169.334,342.198 169.334 C 343.196 169.333,343.252 169.222,342.997 167.733 L 342.786 166.501 341.102 166.596 C 339.523 166.684,339.438 166.672,339.750 166.416 C 340.113 166.119,339.469 166.137,336.861 166.499 C 335.607 166.673,334.763 166.424,335.542 166.110 C 335.924 165.956,335.101 166.008,333.333 166.250 C 330.999 166.569,330.167 166.570,330.167 166.254 C 330.167 166.080,330.032 166.029,329.708 166.077 C 326.634 166.540,324.127 166.611,325.000 166.212 L 325.417 166.021 324.917 166.028 C 324.642 166.032,323.704 166.139,322.833 166.266 M110.167 166.208 C 110.121 166.253,109.071 166.337,107.833 166.395 C 99.163 166.803,89.696 168.288,82.750 170.330 C 82.200 170.491,81.150 170.797,80.417 171.009 C 78.645 171.521,74.540 172.872,73.083 173.422 C 72.442 173.664,71.693 173.944,71.421 174.044 C 71.148 174.144,70.735 174.324,70.504 174.445 C 70.273 174.566,69.981 174.665,69.856 174.666 C 69.731 174.666,69.356 174.809,69.023 174.982 C 68.689 175.155,67.329 175.773,66.000 176.354 C 61.957 178.121,53.406 182.645,53.065 183.196 C 52.950 183.383,53.959 184.333,54.272 184.333 C 54.389 184.333,54.657 184.267,54.867 184.185 C 55.078 184.104,55.850 183.869,56.583 183.664 C 57.317 183.458,58.367 183.160,58.917 183.000 C 60.142 182.644,62.097 182.106,63.708 181.682 C 64.373 181.506,65.496 181.206,66.205 181.015 C 66.913 180.823,67.614 180.667,67.762 180.667 C 67.910 180.667,68.531 180.526,69.141 180.354 C 69.751 180.181,70.700 179.953,71.250 179.845 C 71.800 179.738,73.337 179.430,74.667 179.162 C 78.045 178.480,80.481 178.024,81.167 177.946 C 81.487 177.910,82.537 177.759,83.500 177.612 C 86.021 177.226,90.658 176.696,92.500 176.584 C 93.371 176.530,95.058 176.408,96.250 176.313 C 99.019 176.091,106.698 176.102,109.833 176.334 C 111.162 176.432,113.150 176.578,114.250 176.658 C 116.317 176.808,118.683 177.116,122.000 177.666 C 123.054 177.840,124.142 178.015,124.417 178.053 C 124.692 178.091,126.004 178.365,127.333 178.661 C 128.662 178.957,130.050 179.263,130.417 179.341 C 131.113 179.489,132.440 179.834,135.250 180.594 C 136.167 180.842,137.292 181.147,137.750 181.270 C 138.208 181.394,138.883 181.599,139.250 181.726 C 139.617 181.853,140.479 182.128,141.167 182.337 C 141.854 182.546,142.792 182.846,143.250 183.003 C 143.708 183.160,144.683 183.482,145.417 183.718 C 147.537 184.400,149.697 185.155,151.000 185.670 C 151.412 185.833,152.612 186.278,153.667 186.659 C 154.721 187.040,155.921 187.493,156.333 187.665 C 157.620 188.202,159.720 189.032,160.417 189.279 C 160.783 189.409,161.320 189.624,161.609 189.757 C 161.897 189.891,162.239 190.000,162.367 190.000 C 162.495 190.000,162.671 190.069,162.758 190.154 C 162.845 190.239,163.329 190.470,163.833 190.669 C 165.452 191.306,166.215 191.616,167.917 192.330 C 168.833 192.715,169.958 193.167,170.417 193.335 C 170.875 193.503,172.000 193.955,172.917 194.341 C 173.833 194.726,174.940 195.182,175.375 195.354 C 175.810 195.526,176.542 195.817,177.000 196.000 C 177.458 196.183,178.208 196.483,178.667 196.667 C 179.125 196.850,179.875 197.150,180.333 197.333 C 180.792 197.517,181.542 197.817,182.000 198.000 C 183.696 198.678,184.604 199.031,185.417 199.326 C 185.875 199.493,186.662 199.793,187.167 199.993 C 188.167 200.390,188.674 200.577,191.917 201.744 C 193.108 202.173,194.233 202.563,194.417 202.612 C 194.600 202.660,195.125 202.833,195.583 202.996 C 196.408 203.290,197.579 203.649,200.000 204.351 C 200.688 204.550,201.700 204.847,202.250 205.010 C 203.168 205.282,203.922 205.471,207.500 206.329 C 208.188 206.494,209.575 206.789,210.583 206.985 C 211.592 207.182,212.904 207.452,213.500 207.586 C 214.096 207.720,215.371 207.945,216.333 208.086 C 217.296 208.227,218.196 208.377,218.334 208.419 C 218.472 208.462,219.222 208.566,220.001 208.650 C 220.779 208.735,222.279 208.919,223.333 209.059 C 225.089 209.292,226.376 209.418,231.300 209.836 C 235.469 210.191,251.568 210.143,253.941 209.769 C 254.203 209.728,255.467 209.609,256.750 209.505 C 260.378 209.210,264.419 208.729,267.333 208.247 C 268.204 208.103,269.817 207.837,270.917 207.656 C 274.160 207.122,276.313 206.688,280.917 205.641 C 281.742 205.453,282.942 205.163,283.583 204.997 C 284.225 204.830,285.387 204.532,286.167 204.334 C 288.841 203.655,295.479 201.661,297.074 201.059 C 297.435 200.922,298.373 200.594,299.157 200.329 C 299.941 200.064,301.183 199.614,301.917 199.329 C 302.650 199.044,303.438 198.747,303.667 198.669 C 303.896 198.592,304.571 198.327,305.167 198.081 C 305.762 197.834,306.587 197.498,307.000 197.333 C 308.859 196.589,311.119 195.623,312.298 195.068 C 314.187 194.179,320.476 191.048,321.250 190.611 C 321.617 190.404,322.404 189.969,323.000 189.643 C 323.596 189.317,324.346 188.893,324.667 188.699 C 324.987 188.506,325.662 188.117,326.167 187.836 C 326.671 187.554,327.260 187.188,327.477 187.022 L 327.870 186.721 327.350 186.127 L 326.829 185.534 325.789 185.749 C 325.218 185.867,323.925 186.125,322.917 186.323 C 321.908 186.521,320.371 186.823,319.500 186.995 C 316.017 187.682,314.335 188.009,312.583 188.337 C 311.575 188.526,310.000 188.825,309.083 189.000 C 308.167 189.176,306.517 189.478,305.417 189.672 C 304.317 189.866,302.667 190.163,301.750 190.333 C 298.676 190.901,293.039 191.844,289.750 192.339 C 280.736 193.696,279.262 193.892,272.333 194.653 C 249.709 197.138,233.780 196.748,218.167 193.327 C 217.296 193.136,216.058 192.868,215.417 192.732 C 214.775 192.596,213.875 192.381,213.417 192.255 C 212.958 192.129,211.946 191.867,211.167 191.671 C 208.940 191.114,207.386 190.677,204.083 189.683 C 202.365 189.165,196.714 187.345,195.750 186.998 C 195.292 186.833,194.017 186.383,192.917 185.998 C 191.817 185.613,190.542 185.158,190.083 184.987 C 189.625 184.815,187.975 184.212,186.417 183.647 C 184.858 183.081,183.330 182.509,183.021 182.375 C 182.712 182.241,182.262 182.071,182.021 181.998 C 181.780 181.924,181.058 181.664,180.417 181.421 C 178.747 180.788,176.998 180.176,176.413 180.020 C 176.136 179.946,175.753 179.802,175.563 179.700 C 175.372 179.598,174.549 179.290,173.733 179.014 C 172.917 178.739,170.750 177.996,168.917 177.362 C 165.554 176.201,163.750 175.593,161.917 175.003 C 160.388 174.511,154.407 172.709,153.000 172.316 C 149.173 171.249,147.631 170.849,145.333 170.327 C 144.462 170.129,143.525 169.902,143.250 169.822 C 142.566 169.622,139.799 169.052,137.583 168.654 C 136.575 168.473,135.637 168.284,135.500 168.234 C 135.362 168.184,134.725 168.077,134.083 167.996 C 133.442 167.916,132.429 167.768,131.833 167.669 C 131.237 167.570,130.150 167.422,129.417 167.341 C 128.683 167.260,127.183 167.080,126.083 166.942 C 122.211 166.454,110.467 165.912,110.167 166.208 M281.875 169.782 C 282.035 169.823,282.298 169.823,282.458 169.782 C 282.619 169.740,282.487 169.705,282.167 169.705 C 281.846 169.705,281.715 169.740,281.875 169.782 M183.792 170.875 C 183.739 171.033,182.483 171.103,178.570 171.167 L 173.417 171.250 173.417 172.250 L 173.417 173.250 178.548 173.333 C 182.865 173.403,183.704 173.456,183.837 173.667 C 183.943 173.834,183.996 173.380,183.997 172.292 C 184.000 170.751,183.949 170.402,183.792 170.875 M220.500 172.250 L 220.500 173.333 222.583 173.333 L 224.667 173.333 224.667 172.250 L 224.667 171.167 222.583 171.167 L 220.500 171.167 220.500 172.250 M312.956 171.827 C 312.100 171.993,311.920 172.240,312.750 172.109 C 313.117 172.051,313.552 172.003,313.718 172.002 C 313.884 172.001,313.973 171.925,313.917 171.833 C 313.860 171.742,313.762 171.675,313.698 171.686 C 313.635 171.696,313.301 171.760,312.956 171.827 M356.917 177.288 C 350.188 177.596,342.930 181.329,339.000 186.504 C 338.771 186.806,338.505 187.135,338.410 187.235 C 338.027 187.635,336.667 189.637,336.667 189.799 C 336.667 189.894,336.607 189.997,336.533 190.028 C 336.397 190.084,335.810 191.077,335.023 192.583 C 334.783 193.042,334.455 193.562,334.293 193.740 C 334.132 193.917,334.000 194.118,334.000 194.186 C 334.000 194.254,333.906 194.409,333.792 194.531 C 333.677 194.653,333.209 195.202,332.752 195.751 C 330.774 198.126,328.293 200.193,324.605 202.536 C 322.657 203.774,318.506 205.780,315.375 206.997 C 314.382 207.383,314.647 207.565,317.122 208.195 C 322.032 209.445,327.306 208.010,333.380 203.770 C 334.225 203.180,335.104 202.532,335.333 202.330 C 335.563 202.128,336.012 201.765,336.333 201.524 C 337.476 200.667,341.615 196.960,344.736 194.000 C 351.738 187.358,353.085 186.234,356.055 184.552 C 357.931 183.490,358.412 183.277,360.750 182.476 C 361.832 182.105,363.995 181.516,364.667 181.408 C 367.049 181.027,369.472 180.787,371.333 180.748 C 372.571 180.722,373.668 180.693,373.772 180.684 C 373.933 180.669,374.333 179.493,374.333 179.032 C 374.333 178.894,372.382 178.486,368.167 177.743 C 365.542 177.280,361.052 177.098,356.917 177.288 M265.583 178.500 C 265.133 178.694,266.062 178.694,266.667 178.500 C 267.045 178.379,267.030 178.366,266.500 178.362 C 266.179 178.359,265.767 178.421,265.583 178.500 M121.417 184.588 C 119.290 184.921,117.573 184.964,117.633 184.684 C 117.673 184.498,117.508 184.474,116.800 184.563 C 115.202 184.764,111.878 184.843,112.333 184.669 C 112.862 184.467,110.825 184.596,108.250 184.928 C 105.825 185.240,105.316 185.238,105.440 184.917 C 105.572 184.573,106.124 184.529,99.167 185.419 C 96.588 185.749,95.754 185.748,96.333 185.417 C 96.906 185.090,96.658 185.097,93.583 185.502 C 92.208 185.683,88.983 186.092,86.417 186.410 C 77.941 187.461,71.646 188.330,65.333 189.320 C 64.188 189.499,61.637 189.878,59.667 190.161 C 55.391 190.774,54.280 191.002,54.750 191.167 C 55.349 191.377,48.665 192.667,46.978 192.667 C 46.455 192.667,45.742 193.007,45.970 193.148 C 46.341 193.377,44.736 193.741,41.000 194.275 C 39.854 194.438,39.048 194.599,39.208 194.631 C 40.172 194.828,39.080 195.183,36.000 195.675 C 33.893 196.011,32.762 196.316,33.575 196.328 C 34.831 196.348,31.802 197.039,28.781 197.422 C 28.114 197.506,28.012 197.563,28.174 197.759 C 28.448 198.089,27.937 198.258,25.639 198.595 C 23.812 198.863,22.724 199.133,23.375 199.156 C 24.467 199.196,22.854 199.750,21.000 199.973 C 19.950 200.099,19.871 200.272,20.083 201.968 L 20.194 202.863 21.222 202.759 C 24.466 202.432,30.691 201.397,30.837 201.160 C 30.903 201.054,32.185 200.781,33.687 200.554 C 37.760 199.939,38.117 199.877,37.708 199.854 C 36.292 199.776,38.260 199.204,41.500 198.752 C 42.554 198.606,44.392 198.341,45.583 198.164 C 46.775 197.987,48.853 197.685,50.201 197.492 C 52.639 197.144,53.928 196.873,53.250 196.852 C 53.067 196.846,52.635 196.907,52.291 196.987 C 51.947 197.067,51.628 197.073,51.583 197.000 C 51.471 196.818,51.920 196.667,52.572 196.667 C 52.872 196.667,53.334 196.594,53.600 196.504 C 54.152 196.319,59.081 195.549,63.750 194.919 C 65.492 194.685,67.629 194.383,68.500 194.249 C 69.371 194.115,70.721 193.924,71.500 193.825 C 72.279 193.725,74.454 193.429,76.333 193.166 C 78.212 192.903,81.212 192.493,83.000 192.254 C 84.787 192.016,86.962 191.714,87.833 191.583 C 88.704 191.453,90.879 191.158,92.667 190.928 C 99.213 190.085,101.940 189.846,101.500 190.153 C 101.133 190.410,101.386 190.393,105.045 189.911 C 106.808 189.679,108.850 189.415,109.583 189.324 C 110.317 189.234,111.667 189.053,112.583 188.921 C 114.001 188.718,115.354 188.677,115.667 188.827 C 115.712 188.849,115.563 188.931,115.333 189.011 C 114.755 189.210,116.350 189.096,119.158 188.736 C 120.492 188.565,121.420 188.511,121.451 188.604 C 121.510 188.780,123.871 188.628,125.427 188.348 C 125.971 188.250,127.189 188.091,128.132 187.994 C 130.836 187.719,130.747 187.810,130.302 185.773 L 130.125 184.964 128.562 185.081 C 127.147 185.187,127.000 185.171,127.000 184.909 C 127.000 184.657,126.883 184.635,126.063 184.731 C 123.696 185.009,122.667 185.048,122.667 184.858 C 122.667 184.753,122.742 184.667,122.833 184.667 C 122.925 184.667,123.000 184.592,123.000 184.500 C 123.000 184.408,122.944 184.344,122.875 184.357 C 122.806 184.369,122.150 184.474,121.417 184.588 M74.294 187.451 C 74.501 187.491,74.801 187.490,74.960 187.448 C 75.120 187.406,74.950 187.374,74.583 187.375 C 74.217 187.377,74.086 187.411,74.294 187.451 M99.333 190.500 C 99.014 190.706,99.447 190.710,100.417 190.510 L 101.083 190.372 100.333 190.355 C 99.921 190.346,99.471 190.411,99.333 190.500 M275.610 218.784 C 275.096 218.917,274.667 219.472,274.667 220.005 C 274.667 220.301,274.563 220.550,274.417 220.606 C 274.279 220.659,274.167 220.805,274.167 220.931 C 274.167 221.185,274.884 221.425,275.150 221.261 C 275.718 220.909,276.166 221.361,276.190 222.310 C 276.213 223.200,276.220 223.214,276.321 222.583 L 276.427 221.917 276.560 222.728 C 276.633 223.174,276.680 225.874,276.665 228.728 C 276.620 236.828,276.637 237.506,276.875 237.458 C 277.005 237.432,277.103 237.648,277.134 238.029 C 277.162 238.366,277.294 238.731,277.426 238.841 C 277.558 238.951,277.667 239.149,277.667 239.280 C 277.667 239.412,277.742 239.473,277.835 239.416 C 277.927 239.359,278.054 239.448,278.118 239.614 C 278.272 240.018,279.234 241.000,279.475 241.000 C 279.580 241.000,279.667 241.075,279.667 241.167 C 279.667 241.258,279.768 241.333,279.891 241.333 C 280.015 241.333,280.289 241.483,280.500 241.667 C 280.711 241.850,281.052 242.000,281.258 242.000 C 281.463 242.000,281.673 242.108,281.723 242.241 C 281.782 242.393,282.110 242.500,282.616 242.532 C 283.147 242.566,283.403 242.653,283.375 242.792 C 283.307 243.129,288.977 243.088,289.106 242.750 C 289.172 242.580,289.438 242.500,289.940 242.500 C 290.441 242.500,290.708 242.420,290.773 242.250 C 290.826 242.112,291.007 242.000,291.176 242.000 C 291.345 242.000,291.817 241.775,292.224 241.500 C 292.632 241.225,293.022 241.000,293.091 241.000 C 293.160 241.000,293.471 240.737,293.783 240.417 C 294.094 240.096,294.413 239.833,294.490 239.833 C 294.567 239.833,294.678 239.646,294.735 239.417 C 294.793 239.188,294.907 239.000,294.990 239.000 C 295.073 239.000,295.188 238.781,295.247 238.514 C 295.306 238.247,295.462 237.986,295.594 237.936 C 295.725 237.885,295.836 237.635,295.839 237.380 C 295.842 237.125,295.954 236.771,296.089 236.593 C 296.295 236.321,296.333 235.161,296.333 229.228 C 296.333 225.355,296.397 222.147,296.475 222.099 C 296.661 221.984,296.845 219.767,296.721 219.147 L 296.625 218.667 294.497 218.667 C 292.152 218.667,292.167 218.660,292.167 219.764 C 292.167 220.159,292.243 220.333,292.417 220.333 C 292.635 220.333,292.667 221.303,292.667 228.063 C 292.667 234.730,292.632 235.821,292.417 236.000 C 292.279 236.114,292.167 236.461,292.167 236.770 C 292.167 237.160,292.090 237.333,291.917 237.333 C 291.779 237.333,291.684 237.390,291.705 237.458 C 291.765 237.650,291.120 238.333,290.880 238.333 C 290.762 238.333,290.667 238.446,290.667 238.583 C 290.667 238.736,290.511 238.833,290.268 238.833 C 290.048 238.833,289.826 238.946,289.773 239.083 C 289.702 239.268,289.411 239.333,288.662 239.333 C 288.048 239.333,287.687 239.397,287.747 239.495 C 287.802 239.584,287.652 239.706,287.414 239.766 C 286.828 239.913,285.442 239.744,285.367 239.516 C 285.332 239.413,284.910 239.333,284.403 239.333 C 283.711 239.333,283.500 239.275,283.500 239.083 C 283.500 238.928,283.343 238.833,283.083 238.833 C 282.840 238.833,282.667 238.738,282.667 238.603 C 282.667 238.476,282.509 238.331,282.317 238.281 C 282.124 238.230,282.016 238.109,282.076 238.011 C 282.137 237.913,282.069 237.833,281.927 237.833 C 281.784 237.833,281.667 237.721,281.667 237.583 C 281.667 237.446,281.600 237.333,281.518 237.333 C 281.436 237.333,281.318 237.128,281.255 236.877 C 281.192 236.626,281.057 236.369,280.955 236.306 C 280.823 236.224,280.781 233.709,280.809 227.429 L 280.847 218.667 278.382 218.686 C 277.026 218.697,275.779 218.741,275.610 218.784 M306.250 218.807 C 305.975 218.869,305.770 218.994,305.795 219.085 C 305.820 219.176,305.576 219.273,305.253 219.302 C 304.878 219.335,304.667 219.440,304.667 219.593 C 304.667 219.749,304.491 219.833,304.167 219.833 C 303.868 219.833,303.683 219.913,303.708 220.032 C 303.731 220.141,303.600 220.262,303.417 220.300 C 303.233 220.339,303.023 220.475,302.950 220.602 C 302.877 220.729,302.708 220.833,302.575 220.833 C 302.442 220.833,302.333 220.946,302.333 221.083 C 302.333 221.221,302.260 221.333,302.170 221.333 C 301.917 221.333,300.167 223.174,300.167 223.440 C 300.167 223.571,300.054 223.720,299.917 223.773 C 299.779 223.826,299.667 223.976,299.667 224.106 C 299.667 224.237,299.554 224.387,299.417 224.440 C 299.279 224.492,299.167 224.707,299.167 224.917 C 299.167 225.126,299.054 225.341,298.917 225.394 C 298.751 225.457,298.667 225.719,298.667 226.167 C 298.667 226.586,298.580 226.877,298.439 226.931 C 298.277 226.993,298.177 227.526,298.094 228.759 C 297.969 230.632,298.130 234.042,298.338 233.914 C 298.519 233.802,298.667 234.264,298.667 234.940 C 298.667 235.259,298.734 235.478,298.816 235.427 C 299.001 235.313,299.167 235.721,299.167 236.291 C 299.167 236.528,299.213 236.675,299.271 236.618 C 299.360 236.528,300.167 237.552,300.167 237.755 C 300.167 238.016,302.557 240.500,302.808 240.500 C 302.914 240.500,303.000 240.597,303.000 240.715 C 303.000 240.833,303.151 240.940,303.335 240.954 C 303.519 240.968,303.787 241.097,303.930 241.240 C 304.073 241.383,304.303 241.500,304.440 241.500 C 304.578 241.500,304.803 241.612,304.940 241.750 C 305.078 241.887,305.401 242.000,305.658 242.000 C 305.915 242.000,306.219 242.112,306.333 242.250 C 306.482 242.429,306.873 242.500,307.705 242.500 C 308.592 242.500,308.849 242.552,308.786 242.717 C 308.720 242.887,309.115 242.934,310.625 242.933 C 311.683 242.933,312.462 242.904,312.356 242.869 C 311.810 242.687,312.515 242.500,313.748 242.500 C 314.690 242.500,315.215 242.428,315.366 242.277 C 315.488 242.155,315.917 242.010,316.318 241.956 C 317.139 241.846,317.327 241.649,317.331 240.893 C 317.332 240.583,317.435 240.330,317.583 240.273 C 317.721 240.220,317.833 240.002,317.833 239.789 C 317.833 239.575,317.914 239.320,318.012 239.221 C 318.562 238.671,318.114 237.918,317.205 237.866 C 316.572 237.830,316.340 237.874,316.372 238.023 C 316.397 238.137,316.267 238.262,316.083 238.300 C 315.900 238.339,315.690 238.475,315.617 238.602 C 315.538 238.738,315.212 238.833,314.825 238.833 C 314.387 238.833,314.181 238.903,314.208 239.042 C 314.240 239.201,313.534 239.261,311.208 239.295 C 308.576 239.335,308.167 239.307,308.167 239.087 C 308.167 238.916,308.003 238.833,307.661 238.833 C 307.366 238.833,307.116 238.729,307.060 238.583 C 307.008 238.446,306.820 238.333,306.644 238.333 C 306.467 238.333,306.283 238.228,306.233 238.100 C 306.184 237.971,305.991 237.826,305.805 237.778 C 305.619 237.729,305.516 237.609,305.576 237.511 C 305.637 237.413,305.607 237.333,305.510 237.333 C 305.295 237.333,304.667 236.725,304.667 236.518 C 304.667 236.436,304.549 236.324,304.406 236.269 C 304.263 236.214,304.189 236.098,304.243 236.011 C 304.297 235.925,304.232 235.793,304.099 235.719 C 303.966 235.644,303.851 235.508,303.843 235.417 C 303.814 235.060,303.638 234.667,303.508 234.667 C 303.433 234.667,303.320 234.328,303.258 233.913 C 303.196 233.499,303.083 233.199,303.007 233.246 C 302.790 233.380,302.698 232.133,302.725 229.452 C 302.742 227.789,302.813 226.949,302.943 226.869 C 303.049 226.803,303.192 226.451,303.260 226.087 C 303.329 225.723,303.485 225.324,303.609 225.201 C 303.732 225.077,303.833 224.883,303.833 224.768 C 303.833 224.654,304.040 224.327,304.292 224.043 C 304.544 223.759,304.938 223.298,305.167 223.020 C 305.396 222.742,305.707 222.511,305.857 222.507 C 306.008 222.503,306.171 222.395,306.221 222.266 C 306.270 222.137,306.541 221.981,306.822 221.919 C 307.103 221.857,307.333 221.745,307.333 221.670 C 307.333 221.594,307.783 221.480,308.334 221.417 C 308.884 221.353,309.376 221.233,309.427 221.150 C 309.478 221.068,309.998 221.000,310.583 221.000 C 311.168 221.000,311.689 221.068,311.740 221.150 C 311.791 221.233,312.283 221.353,312.833 221.417 C 313.383 221.480,313.833 221.599,313.833 221.680 C 313.833 221.761,314.015 221.873,314.238 221.929 C 314.460 221.984,314.683 222.136,314.733 222.265 C 314.782 222.394,314.919 222.503,315.036 222.507 C 315.154 222.511,315.434 222.736,315.659 223.007 C 316.142 223.589,317.098 223.708,317.288 223.208 C 317.348 223.048,317.496 222.818,317.616 222.696 C 317.735 222.575,317.833 222.225,317.833 221.919 C 317.833 221.612,317.916 221.334,318.016 221.300 C 318.481 221.145,318.398 219.682,317.897 219.206 L 317.417 218.750 312.083 218.722 C 309.150 218.707,306.525 218.745,306.250 218.807 M320.125 218.855 C 319.821 218.970,319.666 219.149,319.664 219.389 C 319.660 220.131,319.461 220.608,319.310 220.241 C 319.217 220.014,319.188 220.116,319.213 220.583 C 319.249 221.240,319.260 221.250,319.917 221.271 C 321.246 221.314,321.167 221.252,321.167 222.240 C 321.167 222.739,321.242 223.193,321.333 223.250 C 321.440 223.316,321.500 225.866,321.500 230.353 C 321.500 234.977,321.443 237.318,321.333 237.250 C 321.225 237.183,321.167 238.050,321.167 239.729 C 321.167 242.764,320.963 242.525,323.528 242.491 C 326.221 242.456,326.775 242.141,326.071 241.048 C 325.880 240.750,325.833 239.766,325.833 235.985 L 325.833 231.291 326.513 231.399 C 327.198 231.509,328.167 232.322,328.167 232.787 C 328.167 232.904,328.279 233.000,328.417 233.000 C 328.554 233.000,328.667 233.101,328.667 233.224 C 328.667 233.422,328.819 233.648,329.497 234.451 C 329.590 234.562,329.667 234.725,329.667 234.812 C 329.667 234.900,329.723 234.997,329.792 235.028 C 329.981 235.112,330.667 236.129,330.667 236.327 C 330.667 236.422,330.744 236.500,330.837 236.500 C 330.931 236.500,331.080 236.688,331.167 236.917 C 331.254 237.146,331.402 237.333,331.496 237.333 C 331.590 237.333,331.667 237.451,331.667 237.595 C 331.667 237.739,331.779 237.970,331.917 238.107 C 332.054 238.245,332.167 238.502,332.167 238.679 C 332.167 238.855,332.279 239.000,332.417 239.000 C 332.572 239.000,332.667 239.157,332.667 239.417 C 332.667 239.646,332.735 239.833,332.818 239.833 C 332.987 239.833,333.667 241.152,333.667 241.479 C 333.667 241.593,333.733 241.645,333.814 241.595 C 333.895 241.545,334.056 241.733,334.172 242.013 L 334.383 242.522 337.100 242.469 C 340.025 242.413,340.434 242.300,340.037 241.665 C 339.925 241.485,339.833 241.224,339.833 241.086 C 339.833 240.944,339.687 240.833,339.500 240.833 C 339.317 240.833,339.167 240.730,339.167 240.603 C 339.167 240.476,339.009 240.331,338.817 240.281 C 338.624 240.230,338.516 240.109,338.576 240.011 C 338.637 239.913,338.569 239.833,338.427 239.833 C 338.284 239.833,338.167 239.721,338.167 239.583 C 338.167 239.446,338.054 239.333,337.917 239.333 C 337.779 239.333,337.667 239.255,337.667 239.159 C 337.667 239.063,337.497 238.819,337.289 238.617 C 337.082 238.415,336.807 238.044,336.678 237.792 C 336.549 237.540,336.381 237.333,336.305 237.333 C 336.229 237.333,336.167 237.221,336.167 237.083 C 336.167 236.946,336.092 236.833,336.000 236.833 C 335.908 236.833,335.833 236.738,335.833 236.620 C 335.833 236.503,335.683 236.279,335.500 236.122 C 335.317 235.965,335.167 235.723,335.167 235.585 C 335.167 235.447,335.073 235.332,334.958 235.331 C 334.844 235.330,334.600 235.012,334.417 234.623 C 334.233 234.235,333.931 233.767,333.745 233.583 C 333.559 233.400,333.317 233.044,333.207 232.792 C 333.097 232.540,332.931 232.333,332.837 232.333 C 332.743 232.333,332.667 232.221,332.667 232.083 C 332.667 231.946,332.600 231.833,332.518 231.833 C 332.436 231.833,332.321 231.639,332.261 231.401 C 332.201 231.163,331.914 230.750,331.622 230.484 C 331.216 230.113,331.161 230.000,331.385 230.000 C 331.546 230.000,331.720 229.887,331.773 229.750 C 331.826 229.612,331.973 229.500,332.101 229.500 C 332.335 229.500,332.465 229.404,333.464 228.497 C 333.765 228.224,334.067 228.000,334.135 228.000 C 334.203 228.000,334.405 227.671,334.584 227.270 C 334.763 226.868,334.995 226.572,335.100 226.613 C 335.238 226.666,335.293 225.991,335.300 224.176 C 335.307 222.126,335.266 221.667,335.074 221.667 C 334.945 221.667,334.793 221.479,334.735 221.250 C 334.678 221.021,334.564 220.833,334.482 220.833 C 334.400 220.833,334.333 220.721,334.333 220.583 C 334.333 220.446,334.229 220.333,334.101 220.333 C 333.973 220.333,333.826 220.221,333.773 220.083 C 333.720 219.946,333.562 219.833,333.422 219.833 C 333.282 219.833,333.167 219.721,333.167 219.583 C 333.167 219.429,333.010 219.333,332.758 219.333 C 332.534 219.333,332.276 219.202,332.187 219.042 C 331.992 218.694,321.005 218.524,320.125 218.855 M329.544 221.658 C 330.338 222.299,330.667 222.655,330.667 222.876 C 330.667 223.016,330.779 223.174,330.917 223.227 C 331.113 223.302,331.167 223.644,331.167 224.828 C 331.167 226.055,331.120 226.333,330.917 226.333 C 330.750 226.333,330.667 226.500,330.667 226.833 C 330.667 227.167,330.583 227.333,330.417 227.333 C 330.279 227.333,330.167 227.446,330.167 227.583 C 330.167 227.721,330.025 227.833,329.851 227.833 C 329.678 227.833,329.492 227.946,329.440 228.083 C 329.365 228.278,329.002 228.339,327.797 228.358 C 326.600 228.378,326.420 228.408,327.000 228.490 L 327.750 228.598 326.833 228.684 C 326.329 228.731,325.902 228.764,325.884 228.756 C 325.677 228.662,325.790 221.495,326.000 221.429 C 326.424 221.294,329.326 221.481,329.544 221.658 M325.618 230.206 C 325.578 230.414,325.544 230.283,325.542 229.917 C 325.540 229.550,325.573 229.380,325.615 229.540 C 325.656 229.699,325.658 229.999,325.618 230.206 M276.214 233.417 C 276.216 233.875,276.248 234.043,276.286 233.789 C 276.325 233.536,276.324 233.161,276.284 232.956 C 276.244 232.751,276.213 232.958,276.214 233.417 M305.219 244.958 C 306.576 244.986,308.751 244.986,310.052 244.958 C 311.353 244.930,310.242 244.907,307.583 244.907 C 304.925 244.907,303.861 244.930,305.219 244.958 M298.167 245.320 C 295.554 245.378,293.529 245.447,293.667 245.474 C 294.514 245.642,292.853 245.812,290.250 245.824 C 288.557 245.832,287.346 245.900,287.471 245.979 C 287.809 246.193,286.699 246.327,284.417 246.348 C 283.307 246.358,282.602 246.420,282.833 246.486 C 283.368 246.638,281.955 246.830,280.280 246.832 C 279.493 246.833,279.066 246.910,278.893 247.083 C 278.702 247.274,278.226 247.333,276.895 247.333 C 275.908 247.333,275.187 247.398,275.239 247.483 C 275.398 247.740,274.859 247.833,273.195 247.836 C 272.167 247.838,271.670 247.893,271.822 247.989 C 272.089 248.158,271.478 248.300,270.167 248.374 L 269.417 248.417 269.417 249.250 L 269.417 250.083 273.083 250.080 C 278.458 250.075,281.315 249.955,281.402 249.729 C 281.452 249.597,282.867 249.501,286.029 249.416 C 288.534 249.349,290.933 249.284,291.361 249.272 C 291.789 249.260,292.195 249.194,292.264 249.125 C 292.445 248.943,323.628 248.968,323.740 249.150 C 323.791 249.233,324.414 249.302,325.125 249.304 C 329.415 249.313,334.533 249.558,334.609 249.756 C 334.661 249.892,335.000 249.964,335.553 249.957 C 336.028 249.951,338.348 250.008,340.708 250.083 L 345.000 250.219 345.000 249.276 L 345.000 248.333 344.125 248.331 C 343.357 248.329,342.466 248.063,342.917 247.971 C 343.008 247.952,342.408 247.895,341.583 247.844 C 340.511 247.777,340.095 247.691,340.125 247.542 C 340.156 247.386,339.727 247.333,338.411 247.333 C 337.005 247.333,336.637 247.284,336.560 247.083 C 336.487 246.894,336.177 246.833,335.274 246.831 C 333.700 246.829,332.640 246.661,333.091 246.484 C 333.271 246.414,332.516 246.352,331.396 246.345 C 329.162 246.332,328.171 246.206,328.528 245.979 C 328.654 245.900,327.445 245.836,325.750 245.834 C 322.669 245.829,321.783 245.740,322.194 245.479 C 322.321 245.399,321.269 245.337,319.750 245.336 C 318.283 245.334,313.896 245.307,310.000 245.274 C 306.104 245.242,300.779 245.263,298.167 245.320 " stroke="none" fill="#fbfbfb" fill-rule="evenodd"></path><path id="path2" d="M192.539 52.500 C 192.539 52.821,192.573 52.952,192.615 52.792 C 192.657 52.631,192.657 52.369,192.615 52.208 C 192.573 52.048,192.539 52.179,192.539 52.500 M190.667 58.885 C 190.667 58.914,190.910 59.158,191.208 59.427 L 191.750 59.917 191.260 59.375 C 190.804 58.870,190.667 58.757,190.667 58.885 M203.249 104.750 C 203.249 127.758,203.268 137.146,203.292 125.612 C 203.315 114.077,203.315 95.252,203.292 83.778 C 203.268 72.304,203.249 81.742,203.249 104.750 M190.399 65.417 C 190.399 66.700,190.426 67.203,190.457 66.534 C 190.489 65.866,190.489 64.816,190.457 64.201 C 190.425 63.586,190.399 64.133,190.399 65.417 M188.333 69.500 L 186.250 69.599 188.375 69.633 C 189.703 69.654,190.500 69.604,190.500 69.500 C 190.500 69.408,190.481 69.349,190.458 69.367 C 190.435 69.386,189.479 69.445,188.333 69.500 M199.077 77.083 C 199.077 81.300,199.098 83.001,199.125 80.864 C 199.151 78.726,199.151 75.276,199.125 73.197 C 199.098 71.118,199.077 72.867,199.077 77.083 M171.200 72.042 L 171.234 73.417 171.290 72.133 L 171.347 70.849 172.382 70.790 L 173.417 70.731 172.292 70.699 L 171.167 70.667 171.200 72.042 M193.715 70.790 C 194.338 70.823,195.313 70.822,195.882 70.790 C 196.451 70.757,195.942 70.731,194.750 70.731 C 193.558 70.732,193.093 70.758,193.715 70.790 M146.388 72.958 C 150.405 72.983,156.930 72.983,160.888 72.958 C 164.845 72.933,161.558 72.913,153.583 72.913 C 145.608 72.913,142.370 72.933,146.388 72.958 M171.204 77.145 C 171.171 79.555,171.196 79.850,171.417 79.667 C 171.695 79.435,171.757 79.258,171.504 79.414 C 171.403 79.477,171.323 78.564,171.291 76.965 L 171.241 74.417 171.204 77.145 M171.167 81.639 L 171.167 82.500 172.292 82.468 L 173.417 82.436 172.363 82.376 L 171.309 82.317 171.356 81.665 C 171.382 81.307,171.350 80.961,171.285 80.896 C 171.220 80.831,171.167 81.165,171.167 81.639 M179.886 82.458 C 181.886 82.485,185.111 82.485,187.053 82.458 C 188.995 82.431,187.358 82.410,183.417 82.410 C 179.475 82.410,177.886 82.432,179.886 82.458 M199.081 116.667 C 199.081 129.637,199.101 134.944,199.125 128.458 C 199.149 121.973,199.149 111.360,199.125 104.875 C 199.101 98.390,199.081 103.696,199.081 116.667 M167.333 108.719 C 167.333 108.748,167.577 108.991,167.875 109.260 L 168.417 109.750 167.927 109.208 C 167.471 108.703,167.333 108.590,167.333 108.719 M228.740 111.375 L 228.250 111.917 228.792 111.427 C 229.297 110.971,229.410 110.833,229.281 110.833 C 229.252 110.833,229.009 111.077,228.740 111.375 M190.388 121.417 C 190.389 122.058,190.419 122.300,190.455 121.955 C 190.491 121.609,190.490 121.084,190.454 120.788 C 190.417 120.492,190.387 120.775,190.388 121.417 M258.000 129.719 C 258.000 129.748,258.244 129.991,258.542 130.260 L 259.083 130.750 258.594 130.208 C 258.138 129.703,258.000 129.590,258.000 129.719 M251.494 134.125 L 250.583 135.083 251.542 134.172 C 252.432 133.326,252.576 133.167,252.453 133.167 C 252.427 133.167,251.995 133.598,251.494 134.125 M136.167 137.917 C 136.478 138.237,136.770 138.500,136.815 138.500 C 136.861 138.500,136.644 138.237,136.333 137.917 C 136.022 137.596,135.730 137.333,135.685 137.333 C 135.639 137.333,135.856 137.596,136.167 137.917 M140.500 142.250 C 140.811 142.571,141.103 142.833,141.149 142.833 C 141.195 142.833,140.978 142.571,140.667 142.250 C 140.356 141.929,140.064 141.667,140.018 141.667 C 139.972 141.667,140.189 141.929,140.500 142.250 M196.792 145.618 C 196.998 145.657,197.335 145.657,197.542 145.618 C 197.748 145.578,197.579 145.545,197.167 145.545 C 196.754 145.545,196.585 145.578,196.792 145.618 M198.458 145.618 C 198.665 145.657,199.002 145.657,199.208 145.618 C 199.415 145.578,199.246 145.545,198.833 145.545 C 198.421 145.545,198.252 145.578,198.458 145.618 M197.292 147.789 C 197.681 147.824,198.319 147.824,198.708 147.789 C 199.098 147.754,198.779 147.725,198.000 147.725 C 197.221 147.725,196.902 147.754,197.292 147.789 M197.708 149.782 C 197.869 149.823,198.131 149.823,198.292 149.782 C 198.452 149.740,198.321 149.705,198.000 149.705 C 197.679 149.705,197.548 149.740,197.708 149.782 M189.906 150.875 L 189.417 151.417 189.958 150.927 C 190.463 150.471,190.577 150.333,190.448 150.333 C 190.419 150.333,190.175 150.577,189.906 150.875 M186.244 166.917 C 186.244 171.683,186.266 173.609,186.292 171.197 C 186.318 168.784,186.318 164.884,186.292 162.530 C 186.265 160.176,186.244 162.150,186.244 166.917 M207.552 159.417 C 207.553 159.967,207.584 160.172,207.621 159.872 C 207.658 159.572,207.657 159.122,207.619 158.872 C 207.581 158.622,207.551 158.867,207.552 159.417 M205.372 159.500 C 205.372 159.821,205.406 159.952,205.448 159.792 C 205.490 159.631,205.490 159.369,205.448 159.208 C 205.406 159.048,205.372 159.179,205.372 159.500 M192.167 164.219 C 192.167 164.248,192.410 164.491,192.708 164.760 L 193.250 165.250 192.760 164.708 C 192.304 164.203,192.167 164.090,192.167 164.219 M204.573 166.375 L 204.083 166.917 204.625 166.427 C 205.130 165.971,205.243 165.833,205.115 165.833 C 205.086 165.833,204.842 166.077,204.573 166.375 M197.458 169.118 C 197.665 169.157,198.002 169.157,198.208 169.118 C 198.415 169.078,198.246 169.045,197.833 169.045 C 197.421 169.045,197.252 169.078,197.458 169.118 M220.388 172.250 C 220.389 172.892,220.419 173.134,220.455 172.788 C 220.491 172.442,220.490 171.917,220.454 171.621 C 220.417 171.325,220.387 171.608,220.388 172.250 " stroke="none" fill="#949193" fill-rule="evenodd"></path><path id="path3" d="M205.362 67.208 C 205.392 69.281,205.457 69.034,205.538 66.541 C 205.563 65.785,205.527 65.166,205.458 65.166 C 205.390 65.166,205.346 66.085,205.362 67.208 M193.375 68.624 C 194.269 68.654,195.731 68.654,196.625 68.624 C 197.519 68.594,196.787 68.570,195.000 68.570 C 193.213 68.570,192.481 68.594,193.375 68.624 M196.873 77.051 L 196.833 83.519 194.682 83.468 C 193.499 83.440,192.566 83.473,192.609 83.542 C 192.750 83.770,196.835 83.690,196.924 83.458 C 196.968 83.343,196.983 80.399,196.958 76.916 L 196.913 70.583 196.873 77.051 M139.079 77.167 L 139.083 81.417 153.667 81.418 L 168.250 81.419 153.711 81.375 L 139.172 81.332 139.123 77.124 L 139.074 72.917 139.079 77.167 M173.223 73.761 C 173.168 73.905,173.207 74.107,173.311 74.211 C 173.452 74.352,173.500 74.285,173.500 73.950 C 173.500 73.449,173.375 73.364,173.223 73.761 M173.241 80.181 C 173.179 80.281,173.213 80.446,173.315 80.548 C 173.451 80.684,173.500 80.636,173.500 80.367 C 173.500 79.964,173.413 79.902,173.241 80.181 M196.914 116.583 C 196.914 129.600,196.934 134.900,196.958 128.362 C 196.982 121.824,196.982 111.174,196.958 104.695 C 196.934 98.217,196.914 103.567,196.914 116.583 M205.356 121.365 C 205.344 121.979,205.390 122.515,205.458 122.558 C 205.527 122.600,205.562 122.249,205.535 121.776 C 205.456 120.355,205.380 120.182,205.356 121.365 M137.661 129.792 L 136.750 130.750 137.708 129.839 C 138.599 128.993,138.743 128.833,138.619 128.833 C 138.593 128.833,138.162 129.265,137.661 129.792 M135.324 132.125 L 134.750 132.750 135.375 132.176 C 135.719 131.860,136.000 131.578,136.000 131.551 C 136.000 131.423,135.859 131.543,135.324 132.125 M144.083 133.833 C 144.720 134.475,145.279 135.000,145.324 135.000 C 145.370 135.000,144.887 134.475,144.250 133.833 C 143.613 133.192,143.055 132.667,143.009 132.667 C 142.963 132.667,143.447 133.192,144.083 133.833 M259.491 138.125 L 258.917 138.750 259.542 138.176 C 260.123 137.641,260.243 137.500,260.116 137.500 C 260.088 137.500,259.807 137.781,259.491 138.125 M256.000 139.885 C 256.000 139.914,256.244 140.158,256.542 140.427 L 257.083 140.917 256.594 140.375 C 256.138 139.870,256.000 139.757,256.000 139.885 M206.250 151.167 C 206.608 151.533,206.938 151.833,206.984 151.833 C 207.030 151.833,206.775 151.533,206.417 151.167 C 206.059 150.800,205.728 150.500,205.682 150.500 C 205.637 150.500,205.892 150.800,206.250 151.167 M197.625 151.951 C 197.831 151.991,198.169 151.991,198.375 151.951 C 198.581 151.911,198.412 151.879,198.000 151.879 C 197.588 151.879,197.419 151.911,197.625 151.951 M184.067 161.250 C 184.067 162.625,184.093 163.165,184.124 162.451 C 184.155 161.736,184.155 160.611,184.124 159.951 C 184.092 159.290,184.066 159.875,184.067 161.250 M190.375 159.417 C 190.377 159.783,190.411 159.914,190.451 159.706 C 190.491 159.499,190.490 159.199,190.448 159.040 C 190.406 158.880,190.374 159.050,190.375 159.417 M209.744 167.167 C 209.744 171.796,209.765 173.690,209.792 171.375 C 209.818 169.060,209.818 165.273,209.792 162.958 C 209.765 160.644,209.744 162.537,209.744 167.167 M184.064 172.250 C 184.064 173.350,184.091 173.778,184.124 173.202 C 184.156 172.625,184.156 171.725,184.123 171.202 C 184.090 170.678,184.063 171.150,184.064 172.250 " stroke="none" fill="#747473" fill-rule="evenodd"></path><path id="path4" d="M192.566 65.417 C 192.566 66.700,192.592 67.203,192.624 66.534 C 192.656 65.866,192.655 64.816,192.623 64.201 C 192.591 63.586,192.565 64.133,192.566 65.417 M192.539 71.333 C 192.539 71.654,192.573 71.785,192.615 71.625 C 192.657 71.465,192.657 71.202,192.615 71.042 C 192.573 70.881,192.539 71.012,192.539 71.333 M179.792 71.791 C 181.740 71.818,184.927 71.818,186.875 71.791 C 188.823 71.765,187.229 71.743,183.333 71.743 C 179.438 71.743,177.844 71.765,179.792 71.791 M169.074 77.167 C 169.074 79.871,169.097 80.977,169.125 79.625 C 169.153 78.273,169.153 76.060,169.125 74.708 C 169.097 73.356,169.074 74.462,169.074 77.167 M192.539 82.833 C 192.539 83.154,192.573 83.285,192.615 83.125 C 192.657 82.965,192.657 82.702,192.615 82.542 C 192.573 82.381,192.539 82.512,192.539 82.833 M178.875 84.621 C 179.219 84.657,179.781 84.657,180.125 84.621 C 180.469 84.585,180.188 84.556,179.500 84.556 C 178.813 84.556,178.531 84.585,178.875 84.621 M192.580 103.083 C 192.580 112.158,192.600 115.846,192.625 111.279 C 192.650 106.712,192.650 99.287,192.625 94.779 C 192.600 90.271,192.580 94.008,192.580 103.083 M192.579 133.083 C 192.579 140.508,192.600 143.570,192.625 139.887 C 192.650 136.205,192.650 130.130,192.625 126.387 C 192.600 122.645,192.579 125.658,192.579 133.083 " stroke="none" fill="#7c7476" fill-rule="evenodd"></path></g></svg>